<?xml version="1.0" standalone="no"?>
<!DOCTYPE svg PUBLIC "-//W3C//DTD SVG 20010904//EN"
 "http://www.w3.org/TR/2001/REC-SVG-20010904/DTD/svg10.dtd">
<svg version="1.0" xmlns="http://www.w3.org/2000/svg"
 width="640.000000pt" height="1280.000000pt" viewBox="0 0 640.000000 1280.000000"
 preserveAspectRatio="xMidYMid meet">
<metadata>
Created by potrace 1.15, written by Peter Selinger 2001-2017
</metadata>
<g transform="translate(0.000000,1280.000000) scale(0.100000,-0.100000)"
fill="#000000" stroke="none">
<path d="M2795 12790 c-846 -62 -1549 -343 -2029 -810 -397 -386 -601 -838
-622 -1375 -11 -256 30 -464 131 -670 171 -350 473 -563 841 -593 316 -26 599
65 797 257 132 126 216 284 269 501 18 75 18 415 0 490 -47 190 -144 353 -347
580 -92 103 -161 202 -185 266 -57 153 -26 339 80 476 157 203 463 318 844
318 720 0 1178 -537 1301 -1525 36 -294 36 -778 0 -1067 -64 -524 -204 -929
-560 -1628 -301 -589 -401 -808 -481 -1049 -92 -277 -122 -532 -104 -892 5
-107 12 -258 16 -336 l7 -143 237 0 237 0 6 248 c15 637 106 919 387 1202 143
145 351 295 765 555 917 575 1386 1008 1638 1511 168 337 236 679 224 1143
-10 411 -80 716 -241 1046 -408 835 -1254 1353 -2423 1481 -166 18 -622 26
-788 14z"/>
<path d="M2620 5050 c-903 -126 -1642 -851 -1774 -1742 -20 -133 -20 -370 -1
-508 50 -349 214 -714 448 -994 31 -37 57 -71 57 -75 0 -4 -18 -25 -41 -46
-115 -113 -304 -377 -418 -589 -127 -234 -293 -626 -309 -730 -9 -58 4 -142
30 -191 27 -50 89 -106 147 -134 l56 -26 1745 -8 c960 -4 1891 -6 2070 -5 317
3 326 4 377 27 103 46 183 169 183 280 0 112 -218 653 -371 924 -111 195 -240
375 -367 509 -58 62 -63 70 -51 87 160 219 237 352 309 533 199 502 178 1022
-60 1516 -106 219 -233 397 -414 577 -299 298 -645 488 -1041 571 -98 21 -155
26 -315 29 -107 2 -224 0 -260 -5z"/>
</g>
</svg>
