<?xml version="1.0" standalone="no"?>
<!DOCTYPE svg PUBLIC "-//W3C//DTD SVG 20010904//EN"
 "http://www.w3.org/TR/2001/REC-SVG-20010904/DTD/svg10.dtd">
<svg version="1.0" xmlns="http://www.w3.org/2000/svg"
 width="1280.000000pt" height="808.000000pt" viewBox="0 0 1280.000000 808.000000"
 preserveAspectRatio="xMidYMid meet">
<metadata>
Created by potrace 1.15, written by Peter Selinger 2001-2017
</metadata>
<g transform="translate(0.000000,808.000000) scale(0.100000,-0.100000)"
fill="#000000" stroke="none">
<path d="M3303 8070 c-50 -16 -75 -56 -71 -113 l3 -49 -75 9 c-41 4 -118 8
-170 8 -81 0 -101 -3 -135 -23 -34 -20 -85 -76 -85 -94 0 -3 22 -8 48 -12 67
-9 143 -49 197 -103 45 -46 135 -206 123 -218 -3 -4 -23 -2 -45 4 -103 29
-281 0 -431 -70 -263 -122 -393 -310 -323 -464 10 -23 47 -66 81 -98 39 -35
60 -61 54 -66 -5 -5 -52 -26 -104 -46 -337 -131 -650 -337 -831 -547 -388
-451 -312 -926 167 -1048 43 -11 90 -20 106 -20 15 0 28 -4 28 -9 0 -20 -85
-134 -124 -166 -99 -81 -207 -110 -376 -102 -136 6 -217 28 -345 91 -84 42
-103 58 -300 251 -116 113 -235 223 -265 243 -83 55 -156 82 -225 82 -82 0
-128 -28 -169 -100 -28 -50 -31 -63 -31 -140 0 -79 3 -91 42 -172 23 -47 76
-137 119 -199 78 -112 78 -114 86 -194 10 -104 52 -191 149 -305 106 -125 106
-126 81 -153 -88 -94 -83 -292 12 -450 121 -200 327 -330 556 -352 70 -6 203
5 244 21 15 6 17 3 11 -15 -13 -41 -6 -214 10 -275 24 -91 72 -170 139 -234
110 -102 222 -145 381 -145 136 0 267 41 397 124 l47 31 28 -20 c54 -38 113
-62 151 -62 89 0 333 -52 607 -130 393 -112 597 -156 775 -166 92 -6 103 -4
330 54 384 98 652 192 898 316 121 61 293 172 368 238 48 43 51 45 179 65 72
12 173 36 225 53 119 38 329 140 437 211 158 105 929 746 1243 1035 225 207
671 670 787 817 25 33 21 32 180 18 83 -7 154 -8 225 -1 210 20 323 67 447
186 45 44 108 97 139 118 164 113 494 226 827 286 39 6 170 45 292 86 122 41
243 77 268 80 41 6 45 5 45 -14 0 -11 -4 -24 -10 -27 -5 -3 -9 -16 -9 -28 1
-12 -8 -74 -20 -137 -11 -63 -28 -207 -37 -320 -8 -113 -24 -248 -34 -301 -17
-91 -55 -199 -69 -199 -4 0 -19 35 -35 78 -117 318 -245 512 -356 542 -111 30
-278 -69 -385 -231 -70 -103 -150 -270 -171 -350 -24 -93 -23 -239 0 -329 51
-192 189 -362 353 -437 82 -38 200 -44 268 -14 49 22 85 27 85 13 0 -50 -176
-386 -278 -532 -60 -85 -204 -346 -232 -419 -20 -55 -29 -65 -118 -133 -190
-143 -381 -356 -486 -542 -51 -89 -55 -119 -16 -124 30 -4 110 -32 127 -44 8
-6 -1 -22 -31 -52 -138 -138 -288 -515 -326 -820 -17 -132 -8 -337 19 -440 46
-173 132 -302 271 -401 80 -58 84 -63 86 -101 3 -55 56 -179 116 -271 169
-259 449 -419 853 -485 121 -19 463 -16 604 5 479 75 843 279 870 488 6 50 6
51 58 69 88 31 154 72 235 149 209 196 338 517 339 842 0 131 -17 222 -56 299
-24 47 -24 51 -8 56 74 22 195 126 280 238 116 155 191 435 180 671 -7 149
-30 242 -88 355 -76 147 -133 216 -312 378 -110 100 -141 169 -132 301 3 46 2
82 -1 79 -11 -11 -34 -143 -34 -194 0 -29 7 -75 17 -103 9 -28 13 -54 10 -57
-3 -3 -52 6 -109 22 -90 25 -121 28 -248 29 -127 0 -154 -3 -218 -24 -40 -13
-101 -41 -135 -61 -36 -22 -69 -35 -80 -32 -31 8 -56 80 -127 369 -41 163 -77
286 -90 308 -12 19 -20 41 -17 48 2 6 29 20 58 31 225 77 440 340 588 721 57
144 54 213 -11 271 -12 12 -61 41 -107 65 -46 24 -92 55 -102 68 -24 30 -88
45 -137 31 -78 -21 -149 -75 -309 -233 -90 -88 -164 -159 -166 -156 -2 2 -9
31 -15 63 -18 89 -14 292 8 470 21 170 25 362 10 436 -28 131 -29 137 -3 149
13 6 146 33 296 61 368 67 678 129 927 184 58 13 138 29 178 36 68 11 102 28
102 52 0 6 -12 8 -32 3 -49 -10 -91 -10 -343 4 -449 26 -1193 -11 -2015 -99
-52 -6 -180 -19 -285 -30 -104 -11 -230 -24 -280 -30 -148 -16 -274 -29 -389
-39 l-109 -11 -43 28 c-24 15 -43 32 -44 38 0 6 9 37 20 69 29 83 19 91 -19
17 -18 -35 -36 -62 -40 -60 -13 5 -138 152 -207 243 -33 44 -127 177 -209 295
-192 279 -231 329 -261 336 -40 10 -86 -4 -120 -37 -22 -21 -45 -32 -85 -38
-30 -5 -56 -7 -59 -4 -9 9 55 54 138 95 45 23 81 43 79 45 -7 6 -113 -30 -169
-58 -45 -22 -58 -25 -58 -13 0 8 10 18 23 23 13 5 36 20 53 33 16 12 43 33 60
45 36 25 203 105 256 122 40 13 59 31 33 31 -38 0 -217 -33 -320 -60 -282 -73
-496 -190 -675 -370 -320 -320 -423 -796 -257 -1198 48 -115 174 -276 251
-319 29 -16 16 -36 -108 -169 -169 -179 -392 -354 -661 -517 -256 -156 -437
-234 -595 -257 -171 -25 -250 12 -470 225 -183 177 -250 219 -401 249 -26 6
-26 6 -33 138 -54 1007 -562 2075 -1221 2568 -108 80 -226 153 -315 193 -36
16 -88 39 -117 53 -58 27 -170 39 -220 24z"/>
</g>
</svg>
