<?xml version="1.0" encoding="UTF-8"?>
<!-- Generator: Adobe Illustrator 25.2.1, SVG Export Plug-In . SVG Version: 6.00 Build 0)  -->
<svg xmlns="http://www.w3.org/2000/svg" xmlns:xlink="http://www.w3.org/1999/xlink" version="1.1" id="Capa_1" x="0px" y="0px" viewBox="0 0 512 512" style="enable-background:new 0 0 512 512;" xml:space="preserve" width="512" height="512">
<g>
	<g>
		<path style="fill:#FFFFFF;" d="M476.02,268.434c17.583-17.952,29.902-40.317,35.622-64.677c1.081-4.6-0.323-9.43-3.7-12.735    c-2.553-2.501-5.957-3.852-9.442-3.852c-1.123,0-2.255,0.139-3.369,0.427c-9.024,2.325-18.348,3.504-27.713,3.504    c-1.472,0-2.951-0.03-4.43-0.088c-17.918-52.888-55.796-96.601-105.675-121.947c0.479-4.785,1.257-9.474,2.325-14.014    c1.086-4.602-0.319-9.435-3.696-12.743c-2.555-2.5-5.957-3.853-9.444-3.853c-1.125,0-2.259,0.141-3.375,0.429    c-11.347,2.929-22.242,7.287-32.46,12.982c-16.39-3.944-33.244-5.942-50.186-5.942c-111.328,0-203.309,84.894-212.973,194.776    c-20.651,10.522-37.422,29.009-46.519,51.517c-1.683,4.162-1.186,8.886,1.323,12.609c2.51,3.721,6.704,5.952,11.193,5.952h39.313    c23.22,94.966,108.815,162.766,207.662,162.766c50.122,0,98.533-17.571,136.908-49.589h74.124c4.188,0,8.139-1.944,10.695-5.263    c2.558-3.318,3.428-7.635,2.358-11.685c-5.542-20.997-16.727-40.026-31.662-54.002c12.455-25.704,19.684-53.939,21.115-82.571    C474.708,269.758,475.374,269.095,476.02,268.434z"/>
	</g>
	<g>
		<g>
			<path style="fill:#4E3354;" d="M460.781,259.745c0,33.662-8.303,65.389-22.974,93.223c-0.022,0-0.022,0.022-0.022,0.022     c-27.609,52.428-77.786,91.108-137.617,103.123c-12.826,2.588-26.101,3.938-39.692,3.938c-30.782,0-59.943-6.953-86-19.373     c-18.586-8.843-35.597-20.454-50.493-34.337c-17.979-16.741-32.874-36.745-43.72-59.088     c-10.666-21.894-17.438-46.015-19.464-71.486c-0.427-5.288-0.63-10.621-0.63-16.021c0-24.234,4.298-47.433,12.173-68.921     c8.348-22.771,20.701-43.607,36.227-61.653c12.421-14.446,26.866-27.092,42.91-37.51c31.367-20.409,68.809-32.244,108.996-32.244     c2.543,0,5.063,0.045,7.561,0.157c31.772,1.17,61.653,9.743,87.98,24.031c4.5,2.453,8.888,5.063,13.163,7.853     c23.244,15.031,43.157,34.764,58.436,57.851c7.155,10.778,13.276,22.299,18.249,34.427     C455.471,207.16,460.781,232.834,460.781,259.745z"/>
		</g>
		<g>
			<g style="opacity:0.16;">
				<path style="fill:#F9E0D9;" d="M427.614,149.309c-19.126,40.412-48.693,75.874-85.347,101.458      c-38.995,27.204-89.24,43.337-134.512,28.937c-27.047-8.595-51.348-27.587-79.722-28.239      c-19.351-0.45-37.802,7.875-54.813,17.123c-4.185,2.273-8.371,4.635-12.421,7.178c-0.427-5.288-0.63-10.621-0.63-16.021      c0-24.234,4.298-47.433,12.173-68.921c14.108-2.475,28.666-2.273,42.662,0.788c24.796,5.423,47.14,19.193,71.937,24.549      c48.76,10.553,99.928-13.726,133.927-50.223c20.296-21.826,35.552-47.433,48.31-74.479      C392.422,106.489,412.336,126.223,427.614,149.309z"/>
			</g>
			<g style="opacity:0.16;">
				<path style="fill:#F9E0D9;" d="M460.781,259.745c0,33.662-8.303,65.389-22.974,93.223c-0.022,0-0.022,0.022-0.022,0.022      c-11.07,11.318-23.154,21.624-36.159,30.692c-38.972,27.182-89.217,43.337-134.512,28.914      c-27.047-8.595-51.348-27.587-79.699-28.239c-19.374-0.427-37.802,7.875-54.835,17.123c-2.88,1.575-5.76,3.173-8.595,4.86      c-17.979-16.741-32.874-36.745-43.72-59.088c3.038-2.52,6.165-4.838,9.293-6.908c24.639-16.291,55.961-22.119,84.829-15.818      c24.774,5.4,47.14,19.171,71.937,24.526c48.737,10.553,99.928-13.726,133.905-50.223      c30.286-32.514,49.345-73.534,65.636-115.094C455.471,207.16,460.781,232.834,460.781,259.745z"/>
			</g>
			<g style="opacity:0.16;">
				<path style="fill:#F9E0D9;" d="M300.167,456.114c-12.826,2.588-26.101,3.938-39.692,3.938c-30.782,0-59.943-6.953-86-19.373      c20.701-8.438,43.945-10.621,65.771-5.85C260.97,439.35,279.984,449.701,300.167,456.114z"/>
			</g>
			<g style="opacity:0.16;">
				<path style="fill:#F9E0D9;" d="M356.015,83.606c-13.928,16.268-29.859,30.827-47.455,43.09      c-38.972,27.182-89.217,43.315-134.512,28.914c-22.411-7.133-42.955-21.399-65.479-26.439      c12.421-14.446,26.866-27.092,42.91-37.51c0.585,0.135,1.193,0.27,1.778,0.405c40.3,8.73,82.242-6.368,114.779-32.492      C299.807,60.744,329.689,69.317,356.015,83.606z"/>
			</g>
		</g>
		<g>
			<g>
				<path style="fill:#F9C875;" d="M498.5,200.671c-5.004,21.308-15.699,41.547-32.124,58.315      c-47.944,49.013-126.538,49.901-175.571,1.917c-49.013-47.944-49.861-126.558-1.917-175.571      c16.405-16.768,36.422-27.906,57.609-33.375c-8.858,37.612,0.101,78.514,26.655,109.366c14.549-0.464,43.202-1.13,44.13,0.706      c0.948,1.897-8.858,17.979-13.378,25.182c3.43,2.038,6.941,3.915,10.513,5.589c0.706,0.343,1.413,0.666,2.119,0.969      C442.404,205.372,471.401,207.653,498.5,200.671z"/>
			</g>
			<g>
				<g>
					
						<ellipse transform="matrix(0.2677 -0.9635 0.9635 0.2677 57.9516 518.8643)" style="fill:#FFA39F;" cx="370.304" cy="221.309" rx="31.555" ry="31.555"/>
				</g>
				<g>
					<g>
						<g>
							<path style="fill:#4E3354;" d="M367.514,181.082c0,4.932-3.998,8.93-8.93,8.93c-4.932,0-8.93-3.998-8.93-8.93         c0-4.932,3.998-8.93,8.93-8.93C363.516,172.152,367.514,176.15,367.514,181.082z"/>
						</g>
					</g>
					<g>
						<g>
							<path style="fill:#4E3354;" d="M416.536,193.77c-7.082,5.024-15.517,8.132-24.133,8.697h-0.061         c-0.545,0-0.968-0.424-1.009-0.948c-0.04-0.565,0.383-1.029,0.928-1.069c7.849-0.504,15.558-3.249,22.156-7.648         C415.123,193.144,415.83,193.467,416.536,193.77z"/>
						</g>
					</g>
				</g>
			</g>
		</g>
		<g>
			<g>
				<path style="fill:#FEEFEB;" d="M385.109,297.277H13.501c8.303-20.544,24.414-38.005,44.755-46.713      c22.704-9.698,50.335-7.83,70.789,5.985c7.493-24.481,26.664-46.375,50.402-55.961c23.739-9.586,51.775-7.853,74.164,4.59      c22.389,12.421,38.68,35.305,43.112,60.506c5.22-7.268,13.568-11.521,22.366-13.073c8.821-1.575,18.001-0.202,26.394,2.903      C364.116,262.423,378.967,278.444,385.109,297.277z"/>
			</g>
		</g>
		<g>
			<path style="fill:#FEEFEB;" d="M471.508,410.454H210.014c8.778-10.923,21.422-18.825,35.195-21.733     c19.813-4.149,41.348,1.919,56.533,15.326c12.983-31.949,41.376-58.96,75.555-63.504c22.777-3.02,46.457,4.996,63.843,20.039     C456.098,373.509,466.456,391.319,471.508,410.454z"/>
		</g>
		<g>
			<g>
				<path style="fill:#F9E0D9;" d="M274.071,327.98c-8.31,0-12.516-2.361-16.584-4.644c-3.992-2.24-7.761-4.356-15.484-4.356      c-7.723,0-11.492,2.116-15.484,4.356c-4.067,2.283-8.273,4.644-16.585,4.644c-8.306,0-12.51-2.361-16.574-4.644      c-3.988-2.24-7.756-4.356-15.473-4.356c-7.721,0-11.489,2.116-15.478,4.356c-4.065,2.283-8.27,4.644-16.578,4.644      c-8.305,0-12.509-2.361-16.573-4.644c-3.988-2.24-7.756-4.356-15.473-4.356c-0.622,0-1.125-0.503-1.125-1.125      c0-0.622,0.503-1.125,1.125-1.125c8.306,0,12.51,2.361,16.575,4.644c3.987,2.24,7.755,4.356,15.471,4.356      c7.719,0,11.488-2.116,15.477-4.356c4.066-2.283,8.271-4.644,16.579-4.644c8.306,0,12.51,2.361,16.574,4.644      c3.988,2.24,7.756,4.356,15.473,4.356c7.723,0,11.492-2.116,15.484-4.356c4.067-2.283,8.273-4.644,16.585-4.644      c8.312,0,12.517,2.361,16.585,4.644c3.992,2.24,7.76,4.356,15.483,4.356c0.622,0,1.125,0.503,1.125,1.125      C275.197,327.477,274.693,327.98,274.071,327.98z"/>
			</g>
			<g>
				<path style="fill:#F9E0D9;" d="M274.071,344.066c-8.31,0-12.516-2.361-16.584-4.644c-3.992-2.24-7.761-4.356-15.484-4.356      c-7.723,0-11.492,2.116-15.484,4.356c-4.067,2.283-8.273,4.644-16.585,4.644c-8.306,0-12.51-2.361-16.574-4.644      c-3.988-2.24-7.756-4.356-15.473-4.356c-7.721,0-11.489,2.116-15.478,4.356c-4.065,2.283-8.27,4.644-16.578,4.644      c-8.305,0-12.509-2.361-16.573-4.644c-3.988-2.24-7.756-4.356-15.473-4.356c-0.622,0-1.125-0.503-1.125-1.125      c0-0.622,0.503-1.125,1.125-1.125c8.306,0,12.51,2.361,16.575,4.644c3.987,2.24,7.755,4.356,15.471,4.356      c7.719,0,11.488-2.116,15.477-4.356c4.066-2.283,8.271-4.644,16.579-4.644c8.306,0,12.51,2.361,16.574,4.644      c3.988,2.24,7.756,4.356,15.473,4.356c7.723,0,11.492-2.116,15.484-4.356c4.067-2.283,8.273-4.644,16.585-4.644      c8.312,0,12.517,2.361,16.585,4.644c3.992,2.24,7.76,4.356,15.483,4.356c0.622,0,1.125,0.503,1.125,1.125      C275.197,343.563,274.693,344.066,274.071,344.066z"/>
			</g>
			<g>
				<path style="fill:#F9E0D9;" d="M274.071,357.854c-8.31,0-12.516-2.361-16.584-4.644c-3.992-2.24-7.761-4.356-15.484-4.356      c-7.723,0-11.492,2.116-15.484,4.356c-4.067,2.283-8.273,4.644-16.585,4.644c-8.306,0-12.51-2.361-16.574-4.644      c-3.988-2.24-7.756-4.356-15.473-4.356c-7.721,0-11.489,2.116-15.478,4.356c-4.065,2.283-8.27,4.644-16.578,4.644      c-8.305,0-12.509-2.361-16.573-4.644c-3.988-2.24-7.756-4.356-15.473-4.356c-0.622,0-1.125-0.503-1.125-1.125      c0-0.622,0.503-1.125,1.125-1.125c8.306,0,12.51,2.361,16.575,4.644c3.987,2.24,7.755,4.356,15.471,4.356      c7.719,0,11.488-2.116,15.477-4.356c4.066-2.283,8.271-4.644,16.579-4.644c8.306,0,12.51,2.361,16.574,4.644      c3.988,2.24,7.756,4.356,15.473,4.356c7.723,0,11.492-2.116,15.484-4.356c4.067-2.283,8.273-4.644,16.585-4.644      c8.312,0,12.517,2.361,16.585,4.644c3.992,2.24,7.76,4.356,15.483,4.356c0.622,0,1.125,0.503,1.125,1.125      C275.197,357.351,274.693,357.854,274.071,357.854z"/>
			</g>
		</g>
		<g>
			<g>
				<path style="fill:#F9E0D9;" d="M177.486,171.094c-0.754,0-1.365-0.611-1.365-1.365v-56.684c0-0.754,0.611-1.365,1.365-1.365      c0.754,0,1.365,0.611,1.365,1.365v56.684C178.851,170.483,178.24,171.094,177.486,171.094z"/>
			</g>
			<g>
				<path style="fill:#F9E0D9;" d="M198.743,142.752h-43.906c-0.754,0-1.365-0.611-1.365-1.365c0-0.754,0.611-1.365,1.365-1.365      h43.906c0.754,0,1.365,0.611,1.365,1.365C200.107,142.141,199.497,142.752,198.743,142.752z"/>
			</g>
			<g>
				<path style="fill:#F9E0D9;" d="M192.898,157.669c-0.332,0-0.665-0.12-0.927-0.364l-32.216-29.833      c-0.553-0.512-0.587-1.376-0.074-1.928c0.512-0.552,1.377-0.587,1.928-0.074l32.216,29.833c0.553,0.512,0.587,1.376,0.074,1.928      C193.631,157.522,193.265,157.669,192.898,157.669z"/>
			</g>
			<g>
				<path style="fill:#F9E0D9;" d="M162.086,159.054c-0.326,0-0.653-0.115-0.914-0.352c-0.559-0.504-0.604-1.368-0.099-1.927      l29.408-32.605c0.504-0.561,1.367-0.607,1.927-0.099c0.559,0.504,0.604,1.368,0.099,1.927l-29.408,32.605      C162.83,158.903,162.459,159.054,162.086,159.054z"/>
			</g>
		</g>
		<g>
			<g>
				<path style="fill:#F9E0D9;" d="M418.777,335.018c-0.754,0-1.365-0.611-1.365-1.365v-56.684c0-0.754,0.611-1.365,1.365-1.365      s1.365,0.611,1.365,1.365v56.684C420.142,334.407,419.531,335.018,418.777,335.018z"/>
			</g>
			<g>
				<path style="fill:#F9E0D9;" d="M440.033,306.676h-43.907c-0.754,0-1.365-0.611-1.365-1.365s0.611-1.365,1.365-1.365h43.907      c0.754,0,1.365,0.611,1.365,1.365S440.787,306.676,440.033,306.676z"/>
			</g>
			<g>
				<path style="fill:#F9E0D9;" d="M434.187,321.592c-0.332,0-0.665-0.12-0.927-0.364l-32.215-29.832      c-0.553-0.512-0.587-1.375-0.074-1.928c0.512-0.552,1.377-0.587,1.928-0.074l32.215,29.832c0.553,0.512,0.587,1.376,0.074,1.928      C434.92,321.444,434.554,321.592,434.187,321.592z"/>
			</g>
			<g>
				<path style="fill:#F9E0D9;" d="M403.377,322.978c-0.326,0-0.653-0.115-0.914-0.352c-0.559-0.504-0.604-1.368-0.099-1.927      l29.407-32.605c0.502-0.561,1.367-0.605,1.927-0.099c0.559,0.504,0.604,1.368,0.099,1.927l-29.407,32.605      C404.12,322.827,403.749,322.978,403.377,322.978z"/>
			</g>
		</g>
		<g>
			<g>
				<path style="fill:#F9E0D9;" d="M159.869,427.703c-0.754,0-1.365-0.611-1.365-1.365v-56.684c0-0.754,0.611-1.365,1.365-1.365      c0.754,0,1.364,0.611,1.364,1.365v56.684C161.233,427.092,160.623,427.703,159.869,427.703z"/>
			</g>
			<g>
				<path style="fill:#F9E0D9;" d="M181.125,399.362h-43.907c-0.754,0-1.365-0.611-1.365-1.365s0.611-1.365,1.365-1.365h43.907      c0.754,0,1.365,0.611,1.365,1.365S181.879,399.362,181.125,399.362z"/>
			</g>
			<g>
				<path style="fill:#F9E0D9;" d="M175.28,414.279c-0.332,0-0.665-0.12-0.927-0.364l-32.216-29.833      c-0.553-0.512-0.587-1.376-0.074-1.928c0.512-0.552,1.377-0.586,1.928-0.074l32.216,29.833c0.553,0.512,0.587,1.375,0.074,1.928      C176.013,414.131,175.647,414.279,175.28,414.279z"/>
			</g>
			<g>
				<path style="fill:#F9E0D9;" d="M144.469,415.664c-0.326,0-0.653-0.115-0.914-0.352c-0.559-0.504-0.604-1.368-0.099-1.927      l29.406-32.605c0.503-0.562,1.366-0.605,1.927-0.099c0.559,0.504,0.604,1.368,0.099,1.927l-29.406,32.605      C145.212,415.512,144.841,415.664,144.469,415.664z"/>
			</g>
		</g>
		<g>
			<g>
				<path style="fill:#F9C875;" d="M95.786,190.986c0,0,16.373-4.309,17.235-26.427c0,0,2.011,19.246,16.948,24.129      c0,0-13.788,8.33-14.075,24.704C115.893,213.391,112.446,194.433,95.786,190.986z"/>
			</g>
			<g>
				<path style="fill:#F9C875;" d="M319.984,326.129c0,0,13.965-3.675,14.701-22.541c0,0,1.715,16.415,14.455,20.581      c0,0-11.76,7.105-12.005,21.071C337.135,345.239,334.195,329.069,319.984,326.129z"/>
			</g>
			<g>
				<path style="fill:#F9C875;" d="M367.668,131.948c0,0,13.965-3.675,14.7-22.541c0,0,1.715,16.416,14.456,20.58      c0,0-11.76,7.105-12.005,21.071C384.818,151.058,381.878,134.888,367.668,131.948z"/>
			</g>
		</g>
	</g>
</g>















</svg>
