<?xml version="1.0" encoding="UTF-8"?>
<!-- Generator: Adobe Illustrator 25.2.1, SVG Export Plug-In . SVG Version: 6.00 Build 0)  -->
<svg xmlns="http://www.w3.org/2000/svg" xmlns:xlink="http://www.w3.org/1999/xlink" version="1.1" id="Capa_1" x="0px" y="0px" viewBox="0 0 512.017 512.017" style="enable-background:new 0 0 512.017 512.017;" xml:space="preserve" width="512" height="512">
<g>
	<g>
		<path style="fill:#FFFFFF;" d="M495.856,265.438c-1.003-37.276-10.325-72.805-27.7-105.586    c-13.582-25.692-31.56-48.498-53.461-67.825c-0.034-1.093-0.199-2.187-0.495-3.262c-3.662-13.246-11.542-24.84-22.177-32.64    c-9.493-6.975-21.23-10.815-33.046-10.815c-5.703,0-11.265,0.89-16.512,2.638c-0.084,0.027-0.167,0.054-0.251,0.083    c-12.231-4.709-24.851-8.418-37.577-11.038c-10.474-2.173-21.248-3.644-32.097-4.382C246.78,11.547,214.575,0,181.31,0    c-16.178,0-32.185,2.735-47.581,8.132C67.397,31.377,27.561,99.693,39.463,168.437c-15.576,32.459-23.471,67.285-23.471,103.586    C14.687,402.69,125.344,513.31,255.972,511.999C388.811,513.657,501.155,398.149,495.856,265.438z"/>
	</g>
	<g>
		<g>
			<path style="fill:#FFA39F;" d="M482.109,271.736c0,3.318-0.067,6.614-0.224,9.887c-1.076,25.312-47.689,110.328-52.151,115.462     c-4.506,5.224-87.343,83.914-96.961,87.389c-12.017,4.327-24.504,7.69-37.373,9.932c-12.802,2.264-115.437-18.115-124.225-22.195     c-6.277-2.937-96.45-65.173-100.441-70.891c-0.897-1.255-1.771-2.533-2.623-3.811c-21.232-31.634-34.683-68.94-37.598-109.183     c-0.112-1.367-0.202-2.758-0.269-4.147c-0.067-1.278-0.134-2.556-0.157-3.834c-0.135-2.847-0.18-5.717-0.18-8.609     c0-81.966,43.606-153.753,108.914-193.391c2.197-1.345,4.417-2.623,6.658-3.879l0.045-0.022     c32.665-18.339,70.33-28.809,110.483-28.809c15.716,0,31.051,1.592,45.848,4.663c38.338,7.892,73.11,25.469,101.673,50.085     c21.298,18.362,39.144,40.602,52.394,65.667c15.806,29.818,25.132,63.604,26.096,99.475     C482.087,267.589,482.109,269.651,482.109,271.736z"/>
		</g>
		<g>
			<g style="opacity:0.21;">
				<path style="fill:#FEEFEB;" d="M132.455,451.628c26.314,5.413,49.204,19.651,72.504,32.795      c5.754,2.322,11.516,4.623,17.283,6.914L178.28,132.152l-3.789-30.894l-1.479-12.129l-11.457,6.883l-37.311,351.086      C127.001,448.568,129.733,450.093,132.455,451.628z"/>
			</g>
			<g style="opacity:0.21;">
				<path style="fill:#FEEFEB;" d="M386.388,446.959c16.007-16.464,31.736-33.202,47.467-49.933L174.491,101.258l-1.816-2.085      l-5.582,12.129l11.187,20.85l178.961,333.72C367.332,460.084,377.084,453.798,386.388,446.959z"/>
			</g>
			<g style="opacity:0.21;">
				<path style="fill:#FEEFEB;" d="M482.019,265.526L181.374,104.307l-2.04-13.205l276.589,74.948      C471.729,195.869,481.055,229.655,482.019,265.526z"/>
			</g>
			<g style="opacity:0.21;">
				<path style="fill:#FEEFEB;" d="M403.529,100.384L176.643,80.005l-7.062-11.322l132.275-18.384      C340.194,58.19,374.966,75.767,403.529,100.384z"/>
			</g>
			<g style="opacity:0.21;">
				<path style="fill:#FEEFEB;" d="M153.618,73.144L68.111,397.51c-21.972-32.733-35.602-71.518-37.867-113.33L138.822,78.346      l1.614-3.071l5.044-0.807l0.045-0.022L153.618,73.144z"/>
			</g>
		</g>
		<g>
			<g>
				<path style="fill:#F9C875;" d="M304.177,100.707c7.866,22.448,9.211,45.597,5.025,67.388      c-4.851,25.42-17.261,49.012-35.576,67.453c-13.435,13.487-30.043,24.237-49.22,30.956      c-41.2,14.437-84.754,6.935-117.958-16.394c-20.264-14.255-36.654-34.396-46.25-59.055c-0.569-1.41-1.094-2.836-1.605-4.292      c-23.763-67.815,11.949-142.057,79.764-165.82C206.171-2.82,280.413,32.892,304.177,100.707z"/>
			</g>
			<g>
				<g>
					<path style="fill:#4E3354;" d="M138.197,157.293c2.018,5.76-1.015,12.065-6.775,14.083c-5.76,2.018-12.065-1.015-14.083-6.775       c-2.018-5.76,1.015-12.065,6.775-14.083C129.873,148.5,136.179,151.533,138.197,157.293z"/>
				</g>
				<g>
					<path style="fill:#4E3354;" d="M254.16,143.547c2.018,5.76-1.015,12.065-6.774,14.083c-5.76,2.019-12.065-1.015-14.083-6.774       c-2.018-5.76,1.015-12.065,6.774-14.083C245.836,134.754,252.142,137.787,254.16,143.547z"/>
				</g>
				<g>
					<path style="fill:#4E3354;" d="M187.996,182.946c-7.666,0-14.444-5.519-16.763-13.844c-0.234-0.836,0.255-1.702,1.091-1.934       c0.843-0.223,1.7,0.259,1.932,1.091c1.674,6.002,7.021,12.164,14.833,11.502c9.345-0.793,13.627-8.252,13.653-14.849       c0.002-0.865,0.704-1.564,1.569-1.564c0.002,0,0.005,0,0.005,0c0.867,0.004,1.569,0.709,1.564,1.576       c-0.029,8.233-5.717,17.048-16.526,17.965C188.898,182.927,188.444,182.946,187.996,182.946z"/>
				</g>
			</g>
			<g style="opacity:0.92;">
				<path style="fill:#FF8D7D;" d="M137.382,195.326c7.639,21.798-3.844,45.668-25.642,53.307c-1.748,0.612-3.534,1.113-5.293,1.478      c-20.264-14.255-36.654-34.396-46.25-59.055c4.642-9.651,12.968-17.549,23.878-21.372      C105.874,162.045,129.744,173.527,137.382,195.326z"/>
			</g>
			<g style="opacity:0.92;">
				<path style="fill:#FF8D7D;" d="M309.201,168.095c-4.851,25.42-17.261,49.012-35.576,67.453      c-16.285-1.035-31.169-11.566-36.908-27.943c-7.639-21.798,3.843-45.668,25.642-53.307      C279.767,148.199,298.48,154.294,309.201,168.095z"/>
			</g>
		</g>
		<g>
			<g>
				<path style="fill:#FF8D7D;" d="M441.261,322.83c-45.938-45.96-112.165-70.487-181.441-60.645      c-81.674,11.591-145.973,67.954-171.666,140.727c-1.726,4.91,41.768,45.425,43.718,46.837      c6.188,4.484,80.62,10.646,84.342-0.429c9.035-27.016,29.837-61.531,59.947-65.791c32.912-4.686,66.768,25.481,81.856,52.989      c4.417,8.004,52.475-21.951,59.515-28.744c4.977-4.753,39.702-51.427,42.594-58.893      C452.571,337.785,450.677,332.224,441.261,322.83z"/>
			</g>
			<g>
				<path style="fill:#FFA39F;" d="M435.925,346.393c-41.7-47.664-105.91-73.962-173.28-64.389      c-75.038,10.672-133.912,62.999-156.533,130.28c-2.533,7.488,15.492,29.031,21.657,33.784      c1.883,1.48,84.724,14.329,88.446,3.253c9.035-27.016,29.837-61.531,59.947-65.791c32.912-4.686,66.768,25.481,81.856,52.989      c4.417,8.004,26.931,0.861,34.262-4.587C400.148,426.149,443.772,355.361,435.925,346.393z"/>
			</g>
			<g>
				<path style="fill:#F9C875;" d="M406.421,344.936c-36.925-33.338-87.84-50.646-140.952-43.113      c-64.03,9.102-114.922,52.013-137.185,108.129c-5.134,12.914,24.976,44.642,31.612,48.475      c5.941,3.475,52.595,1.969,56.317-9.107c9.035-27.016,29.837-61.531,59.947-65.791c32.912-4.686,66.768,25.481,81.856,52.989      c4.417,8.004,47.937-8.919,54.976-15.712C417.97,416.055,422.159,359.172,406.421,344.936z"/>
			</g>
			<g>
				<path style="fill:#97E8EE;" d="M379.248,356.706c-30.266-23.07-69.388-34.481-110.057-28.697      c-47.417,6.726-86.338,35.333-108.017,74.164c-10.963,19.617,52.282,85.844,51.834,82.683      c-1.771-12.353-0.516-24.46,3.206-35.535c9.035-27.016,29.837-61.531,59.947-65.791c32.912-4.686,66.768,25.481,81.856,52.989      c4.417,8.004,26.931,0.861,34.262-4.587C400.148,426.149,400.233,372.691,379.248,356.706z"/>
			</g>
			<g>
				<path style="fill:#684571;" d="M366.895,370.472c-26.321-19.595-60.084-29.19-95.126-24.213      c-39.301,5.582-71.922,28.316-91.359,59.569c-12.959,20.805,2.395,61.716,11.766,64.631      c8.654,2.713,20.316-10.062,24.038-21.137c9.035-27.016,29.837-61.531,59.947-65.791c32.912-4.686,66.768,25.481,81.856,52.989      c4.417,8.004,25.043,13.259,32.374,7.811C398.26,438.546,388.059,386.21,366.895,370.472z"/>
			</g>
			<g>
				<path style="fill:#4E3354;" d="M357.995,397.241c-21.724-19.281-51.475-29.235-82.504-24.818      c-31.679,4.506-57.91,23.025-73.267,48.426c-11.725,19.303-11.551,56.782-2.494,58.441      c-0.785-3.004,12.762-18.893,16.484-29.968c9.035-27.016,32.665-48.045,62.775-52.305c32.912-4.686,63.94,11.995,79.029,39.503      c4.417,8.004,18.814,11.392,18.949,13.23C384.947,445.244,374.137,411.567,357.995,397.241z"/>
			</g>
		</g>
		<g>
			<path style="fill:#FEEFEB;" d="M295.057,494.978c-12.782,2.278-25.922,3.451-39.331,3.451c-11.282,0-22.385-0.835-33.22-2.459     c-2.641-0.383-5.261-0.835-7.857-1.308c-9.044-1.669-17.886-3.902-26.527-6.632c-9.357-2.932-18.468-6.496-27.243-10.602     c-6.268-2.955-12.401-6.158-18.333-9.654c-6.626-3.857-13.028-8.075-19.207-12.587c-1.948-1.421-3.873-2.865-5.753-4.354     c-6.156-4.782-12.066-9.902-17.685-15.316c-5.775-5.526-11.26-11.391-16.408-17.526c-4.522-5.346-8.775-10.918-12.76-16.669     c1.701-0.203,3.38-0.271,5.082-0.248c4.164,0.045,8.305,0.677,12.312,1.85c6.514,1.827,12.67,5.053,17.93,9.429     c3.179,2.572,6.022,5.594,8.417,8.955c3.649-4.624,8.372-8.368,13.722-11.301c9.872-5.436,21.848-7.985,32.839-7.827     c0.851,0,1.701,0.022,2.552,0.068c5.708,0.293,11.327,1.556,16.655,3.609c8.305,3.248,15.871,8.459,21.781,15.113     c1.97,2.188,3.761,4.534,5.328,7.015c4.186,6.609,6.895,13.963,8.641,21.632c1.612,7.038,2.418,14.346,2.82,21.564     c10.655-9.068,25.497-11.346,39.376-9.97c13.901,1.353,27.22,9.722,33.466,22.286     C293.445,487.083,294.587,490.986,295.057,494.978z"/>
		</g>
		<g>
			<path style="fill:#FEEFEB;" d="M426.686,420.315c-4.53,5.249-9.286,10.272-14.29,15.047c-7.077,6.825-14.583,13.2-22.494,19.012     c-7.37,5.474-15.056,10.497-23.081,15.025c-2.254,1.284-4.53,2.523-6.829,3.717c-8.993,4.708-18.347,8.83-28.017,12.321     c-0.744-6.78-0.135-13.718,1.961-20.228c3.809-11.849,12.464-22.03,23.418-27.955c2.366-1.284,4.846-2.365,7.393-3.221     c-6.852-10.046-8.858-23.449-7.415-36.244c0.608-5.789,1.938-11.443,3.832-16.601c1.33-3.604,3.043-7.051,5.116-10.294     c3.336-5.249,7.573-9.934,12.419-13.831c5.905-4.753,12.735-8.357,20.06-10.339c2.412-0.654,4.823-1.149,7.258-1.487     c9.782-1.397,19.857-0.473,29.662,1.464c2.592,0.518,5.184,1.104,7.731,1.735c-3.404-8.019-3.832-16.804-2.367-25.409     c0.901-5.271,2.524-10.475,4.575-15.385c5.432-12.952,17.355-23.292,31.217-25.567c1.668-0.293,3.358-0.428,5.049-0.451     c-1.082,25.432-6.356,49.76-15.169,72.353c-2.908,7.501-6.221,14.822-9.895,21.918c-3.629,6.983-7.596,13.763-11.878,20.296     c-1.78,2.726-3.629,5.384-5.522,8.019C435.431,409.773,431.171,415.157,426.686,420.315z"/>
		</g>
		<g>
			<path style="fill:#FEEFEB;" d="M476.462,229.579h-159.56c4.26-4.798,9.618-8.632,15.581-10.986     c11.748-4.596,25.626-3.385,36.365,3.206c7.309-25.738,34.728-43.561,61.161-39.503     C453.437,185.883,472.852,206.374,476.462,229.579z"/>
		</g>
		<g>
			<path style="fill:#FEEFEB;" d="M233.656,288.327H30.513c-0.112-1.367-0.202-2.758-0.269-4.147     c-0.067-1.278-0.134-2.556-0.157-3.834c1.592,0.942,3.071,2.13,4.327,3.497c15.044-23.047,41.7-38.943,69.231-39.122     c27.531-0.201,54.749,14.169,70.106,37.015c9.057-7.936,22.666-11.367,34.526-9.237     C218.344,274.292,227.581,280.121,233.656,288.327z"/>
		</g>
		<g>
			<path style="fill:#FEEFEB;" d="M400.861,92.178H285.737c3.139-3.385,6.816-6.233,11.053-8.049     c7.981-3.43,18.339-2.399,24.011,4.193c2.309-12.757,13.743-23.406,26.074-27.486c12.308-4.103,26.5-1.502,36.97,6.188     C392.162,73.122,398.103,82.202,400.861,92.178z"/>
		</g>
	</g>
</g>















</svg>
