<svg width="48" height="68" viewBox="0 0 48 68" fill="none" xmlns="http://www.w3.org/2000/svg">
<path d="M48 15.1828H2.53125V6.05156C2.53125 5.61094 2.8875 5.26406 3.31875 5.26406H47.2031C47.6437 5.26406 47.9906 5.62031 47.9906 6.05156V15.1828H48Z" fill="#464655"/>
<path d="M47.2125 35.0484H3.31875C2.87813 35.0484 2.53125 34.6922 2.53125 34.2609V25.1203H48V34.2609C48 34.6922 47.6437 35.0484 47.2125 35.0484Z" fill="#FFE15A"/>
<path d="M48 15.1828H2.53125V25.1109H48V15.1828Z" fill="#FF4B55"/>
<path d="M1.84688 46.3922C0.825 46.3922 0 45.5672 0 44.5453V3.43594C0 2.42344 0.815625 1.60781 1.82812 1.60781H1.84688C2.86875 1.60781 3.69375 2.43281 3.69375 3.45469V44.5547C3.69375 45.5672 2.85938 46.3922 1.84688 46.3922Z" fill="#2E3033"/>
<path d="M4.54124 63C4.46924 63 4.41524 62.976 4.37924 62.928C4.35524 62.868 4.34924 62.814 4.36124 62.766L7.60124 50.724C7.62524 50.628 7.68524 50.58 7.78124 50.58C7.88924 50.58 7.95524 50.628 7.97924 50.724L11.2372 62.766C11.2612 62.814 11.2552 62.868 11.2192 62.928C11.1832 62.976 11.1292 63 11.0572 63C10.9612 63 10.9012 62.952 10.8772 62.856L9.59924 58.158H5.98124L4.72124 62.856C4.69724 62.952 4.63724 63 4.54124 63ZM6.08924 57.78H9.50924L7.79924 51.444L6.08924 57.78ZM12.7864 63C12.6664 63 12.6064 62.94 12.6064 62.82V50.346C12.6064 50.226 12.6664 50.166 12.7864 50.166C12.9184 50.166 12.9844 50.226 12.9844 50.346V62.82C12.9844 62.94 12.9184 63 12.7864 63ZM16.8656 63.09C16.4576 63.09 16.0916 62.904 15.7676 62.532C15.4556 62.148 15.2096 61.626 15.0296 60.966C14.8616 60.306 14.7776 59.55 14.7776 58.698C14.7776 57.846 14.8616 57.09 15.0296 56.43C15.2096 55.77 15.4496 55.254 15.7496 54.882C16.0616 54.51 16.4216 54.324 16.8296 54.324C17.2016 54.324 17.5196 54.48 17.7836 54.792C18.0596 55.092 18.2696 55.512 18.4136 56.052C18.5696 56.58 18.6476 57.186 18.6476 57.87C18.6476 58.062 18.5516 58.158 18.3596 58.158H15.1916C15.1796 58.338 15.1736 58.518 15.1736 58.698C15.1736 59.466 15.2456 60.156 15.3896 60.768C15.5336 61.368 15.7316 61.842 15.9836 62.19C16.2476 62.538 16.5416 62.712 16.8656 62.712C17.1776 62.712 17.4416 62.58 17.6576 62.316C17.8856 62.052 18.0656 61.704 18.1976 61.272C18.2336 61.164 18.2996 61.11 18.3956 61.11C18.4796 61.11 18.5336 61.146 18.5576 61.218C18.5816 61.278 18.5816 61.344 18.5576 61.416C18.3896 61.932 18.1676 62.34 17.8916 62.64C17.6156 62.94 17.2736 63.09 16.8656 63.09ZM16.8296 54.702C16.4216 54.702 16.0676 54.99 15.7676 55.566C15.4796 56.142 15.2936 56.88 15.2096 57.78H18.2696C18.2456 56.904 18.1016 56.172 17.8376 55.584C17.5856 54.996 17.2496 54.702 16.8296 54.702ZM20.4504 63C20.3304 63 20.2704 62.94 20.2704 62.82V54.594C20.2704 54.474 20.3304 54.414 20.4504 54.414C20.4864 54.414 20.5464 54.438 20.6304 54.486C21.6624 55.074 22.4364 55.758 22.9524 56.538C23.4564 55.758 24.2244 55.074 25.2564 54.486C25.3404 54.438 25.4004 54.414 25.4364 54.414C25.5564 54.414 25.6164 54.474 25.6164 54.594V62.82C25.6164 62.94 25.5564 63 25.4364 63C25.3044 63 25.2384 62.94 25.2384 62.82V54.936C24.2784 55.536 23.5884 56.196 23.1684 56.916C23.4684 57.504 23.6184 58.122 23.6184 58.77C23.6184 59.154 23.5584 59.496 23.4384 59.796C23.3304 60.084 23.1624 60.228 22.9344 60.228C22.7184 60.228 22.5504 60.084 22.4304 59.796C22.3224 59.496 22.2684 59.154 22.2684 58.77C22.2684 58.122 22.4184 57.504 22.7184 56.916C22.2984 56.196 21.6084 55.536 20.6484 54.936V62.82C20.6484 62.94 20.5824 63 20.4504 63ZM22.6464 58.77C22.6464 59.034 22.6764 59.28 22.7364 59.508C22.8084 59.724 22.8744 59.832 22.9344 59.832C22.9944 59.832 23.0604 59.724 23.1324 59.508C23.2044 59.28 23.2404 59.034 23.2404 58.77C23.2404 58.266 23.1444 57.792 22.9524 57.348C22.7484 57.792 22.6464 58.266 22.6464 58.77ZM28.5545 63C28.0985 63 27.7325 62.844 27.4565 62.532C27.1925 62.208 27.0605 61.776 27.0605 61.236C27.0605 60.072 27.6485 59.232 28.8245 58.716L30.4085 58.032V56.322C30.4085 55.242 30.0365 54.702 29.2925 54.702C28.7165 54.702 28.2125 55.062 27.7805 55.782C27.7445 55.842 27.6965 55.872 27.6365 55.872C27.5045 55.872 27.4385 55.812 27.4385 55.692C27.4385 55.656 27.4505 55.614 27.4745 55.566C27.9425 54.738 28.5485 54.324 29.2925 54.324C30.2885 54.324 30.7865 54.99 30.7865 56.322V62.208C30.7865 62.484 30.8945 62.622 31.1105 62.622C31.2305 62.622 31.3325 62.58 31.4165 62.496C31.4525 62.46 31.4945 62.442 31.5425 62.442C31.6745 62.442 31.7405 62.508 31.7405 62.64C31.7405 62.688 31.7225 62.73 31.6865 62.766C31.5305 62.922 31.3385 63 31.1105 63C30.6425 63 30.4085 62.736 30.4085 62.208V62.01C30.0125 62.382 29.6705 62.64 29.3825 62.784C29.1065 62.928 28.8305 63 28.5545 63ZM27.4565 61.236C27.4565 61.68 27.5525 62.022 27.7445 62.262C27.9365 62.502 28.2065 62.622 28.5545 62.622C28.8065 62.622 29.0705 62.544 29.3465 62.388C29.6225 62.232 29.9765 61.956 30.4085 61.56V58.446L28.9865 59.058C27.9665 59.502 27.4565 60.228 27.4565 61.236ZM33.4582 63C33.3382 63 33.2782 62.94 33.2782 62.82V54.594C33.2782 54.474 33.3382 54.414 33.4582 54.414C33.5902 54.414 33.6562 54.474 33.6562 54.594V55.314C33.8962 54.954 34.1542 54.702 34.4302 54.558C34.7062 54.402 35.0062 54.324 35.3302 54.324C36.3262 54.324 36.8242 54.99 36.8242 56.322V62.82C36.8242 62.94 36.7582 63 36.6262 63C36.5062 63 36.4462 62.94 36.4462 62.82V56.322C36.4462 55.734 36.3502 55.32 36.1582 55.08C35.9662 54.828 35.6902 54.702 35.3302 54.702C34.9582 54.702 34.6282 54.816 34.3402 55.044C34.0642 55.26 33.8362 55.536 33.6562 55.872V62.82C33.6562 62.94 33.5902 63 33.4582 63ZM38.9778 53.442C38.8578 53.442 38.7978 53.382 38.7978 53.262V51.48C38.7978 51.36 38.8578 51.3 38.9778 51.3C39.1098 51.3 39.1758 51.36 39.1758 51.48V53.262C39.1758 53.382 39.1098 53.442 38.9778 53.442ZM38.9778 63C38.8578 63 38.7978 62.94 38.7978 62.82V54.594C38.7978 54.474 38.8578 54.414 38.9778 54.414C39.1098 54.414 39.1758 54.474 39.1758 54.594V62.82C39.1758 62.94 39.1098 63 38.9778 63ZM42.283 63C41.827 63 41.461 62.844 41.185 62.532C40.921 62.208 40.789 61.776 40.789 61.236C40.789 60.072 41.377 59.232 42.553 58.716L44.137 58.032V56.322C44.137 55.242 43.765 54.702 43.021 54.702C42.445 54.702 41.941 55.062 41.509 55.782C41.473 55.842 41.425 55.872 41.365 55.872C41.233 55.872 41.167 55.812 41.167 55.692C41.167 55.656 41.179 55.614 41.203 55.566C41.671 54.738 42.277 54.324 43.021 54.324C44.017 54.324 44.515 54.99 44.515 56.322V62.208C44.515 62.484 44.623 62.622 44.839 62.622C44.959 62.622 45.061 62.58 45.145 62.496C45.181 62.46 45.223 62.442 45.271 62.442C45.403 62.442 45.469 62.508 45.469 62.64C45.469 62.688 45.451 62.73 45.415 62.766C45.259 62.922 45.067 63 44.839 63C44.371 63 44.137 62.736 44.137 62.208V62.01C43.741 62.382 43.399 62.64 43.111 62.784C42.835 62.928 42.559 63 42.283 63ZM41.185 61.236C41.185 61.68 41.281 62.022 41.473 62.262C41.665 62.502 41.935 62.622 42.283 62.622C42.535 62.622 42.799 62.544 43.075 62.388C43.351 62.232 43.705 61.956 44.137 61.56V58.446L42.715 59.058C41.695 59.502 41.185 60.228 41.185 61.236Z" fill="black"/>
</svg>
