<svg width="48" height="68" viewBox="0 0 48 68" fill="none" xmlns="http://www.w3.org/2000/svg">
<path d="M17.0625 35.3578H2.4C1.95 35.3578 1.59375 34.9922 1.59375 34.5516V5.76093C1.59375 5.31093 1.95938 4.95468 2.4 4.95468H17.0625V35.3578Z" fill="#41479B"/>
<path d="M32.5312 4.94531H17.0625V35.3484H32.5312V4.94531Z" fill="#F5F5F5"/>
<path d="M47.1937 35.3578H32.5312V4.94531H47.1937C47.6437 4.94531 48 5.31094 48 5.75156V34.5422C48 34.9922 47.6344 35.3578 47.1937 35.3578Z" fill="#FF4B55"/>
<path d="M1.84688 46.3922C0.825 46.3922 0 45.5672 0 44.5453V3.43594C0 2.42344 0.815625 1.60781 1.82812 1.60781H1.84688C2.86875 1.60781 3.69375 2.43281 3.69375 3.45469V44.5547C3.69375 45.5672 2.85938 46.3922 1.84688 46.3922Z" fill="#2E3033"/>
<path d="M10.3928 63C10.2728 63 10.2128 62.94 10.2128 62.82V50.76C10.2128 50.64 10.2728 50.58 10.3928 50.58H13.7948C13.9148 50.58 13.9748 50.64 13.9748 50.76C13.9748 50.892 13.9148 50.958 13.7948 50.958H10.5908V56.124H13.6148C13.7348 56.124 13.7948 56.184 13.7948 56.304C13.7948 56.436 13.7348 56.502 13.6148 56.502H10.5908V62.82C10.5908 62.94 10.5248 63 10.3928 63ZM15.7717 63C15.6517 63 15.5917 62.94 15.5917 62.82V54.594C15.5917 54.474 15.6517 54.414 15.7717 54.414C15.9037 54.414 15.9697 54.474 15.9697 54.594V55.314C16.2097 54.954 16.4677 54.702 16.7437 54.558C17.0197 54.402 17.3197 54.324 17.6437 54.324C18.6397 54.324 19.1377 55.032 19.1377 56.448C19.1377 56.592 19.0777 56.664 18.9577 56.664C18.8257 56.664 18.7597 56.592 18.7597 56.448C18.7597 55.8 18.6637 55.35 18.4717 55.098C18.2797 54.834 18.0037 54.702 17.6437 54.702C17.2717 54.702 16.9417 54.816 16.6537 55.044C16.3777 55.26 16.1497 55.536 15.9697 55.872V62.82C15.9697 62.94 15.9037 63 15.7717 63ZM21.5379 63C21.0819 63 20.7159 62.844 20.4399 62.532C20.1759 62.208 20.0439 61.776 20.0439 61.236C20.0439 60.072 20.6319 59.232 21.8079 58.716L23.3919 58.032V56.322C23.3919 55.242 23.0199 54.702 22.2759 54.702C21.6999 54.702 21.1959 55.062 20.7639 55.782C20.7279 55.842 20.6799 55.872 20.6199 55.872C20.4879 55.872 20.4219 55.812 20.4219 55.692C20.4219 55.656 20.4339 55.614 20.4579 55.566C20.9259 54.738 21.5319 54.324 22.2759 54.324C23.2719 54.324 23.7699 54.99 23.7699 56.322V62.208C23.7699 62.484 23.8779 62.622 24.0939 62.622C24.2139 62.622 24.3159 62.58 24.3999 62.496C24.4359 62.46 24.4779 62.442 24.5259 62.442C24.6579 62.442 24.7239 62.508 24.7239 62.64C24.7239 62.688 24.7059 62.73 24.6699 62.766C24.5139 62.922 24.3219 63 24.0939 63C23.6259 63 23.3919 62.736 23.3919 62.208V62.01C22.9959 62.382 22.6539 62.64 22.3659 62.784C22.0899 62.928 21.8139 63 21.5379 63ZM20.4399 61.236C20.4399 61.68 20.5359 62.022 20.7279 62.262C20.9199 62.502 21.1899 62.622 21.5379 62.622C21.7899 62.622 22.0539 62.544 22.3299 62.388C22.6059 62.232 22.9599 61.956 23.3919 61.56V58.446L21.9699 59.058C20.9499 59.502 20.4399 60.228 20.4399 61.236ZM26.4416 63C26.3216 63 26.2616 62.94 26.2616 62.82V54.594C26.2616 54.474 26.3216 54.414 26.4416 54.414C26.5736 54.414 26.6396 54.474 26.6396 54.594V55.314C26.8796 54.954 27.1376 54.702 27.4136 54.558C27.6896 54.402 27.9896 54.324 28.3136 54.324C29.3096 54.324 29.8076 54.99 29.8076 56.322V62.82C29.8076 62.94 29.7416 63 29.6096 63C29.4896 63 29.4296 62.94 29.4296 62.82V56.322C29.4296 55.734 29.3336 55.32 29.1416 55.08C28.9496 54.828 28.6736 54.702 28.3136 54.702C27.9416 54.702 27.6116 54.816 27.3236 55.044C27.0476 55.26 26.8196 55.536 26.6396 55.872V62.82C26.6396 62.94 26.5736 63 26.4416 63ZM33.4732 63.09C33.0652 63.09 32.7052 62.904 32.3932 62.532C32.0932 62.16 31.8532 61.644 31.6732 60.984C31.5052 60.324 31.4212 59.562 31.4212 58.698C31.4212 57.834 31.5052 57.078 31.6732 56.43C31.8532 55.77 32.0932 55.254 32.3932 54.882C32.7052 54.51 33.0652 54.324 33.4732 54.324C33.8572 54.324 34.1872 54.474 34.4632 54.774C34.7392 55.074 34.9612 55.476 35.1292 55.98C35.1532 56.052 35.1532 56.124 35.1292 56.196C35.1052 56.256 35.0512 56.286 34.9672 56.286C34.8712 56.286 34.8052 56.232 34.7692 56.124C34.6372 55.704 34.4632 55.362 34.2472 55.098C34.0312 54.834 33.7732 54.702 33.4732 54.702C33.1612 54.702 32.8792 54.876 32.6272 55.224C32.3752 55.572 32.1772 56.046 32.0332 56.646C31.8892 57.246 31.8172 57.93 31.8172 58.698C31.8172 59.466 31.8892 60.156 32.0332 60.768C32.1772 61.368 32.3752 61.842 32.6272 62.19C32.8792 62.538 33.1612 62.712 33.4732 62.712C33.7732 62.712 34.0312 62.58 34.2472 62.316C34.4632 62.052 34.6372 61.704 34.7692 61.272C34.8052 61.164 34.8712 61.11 34.9672 61.11C35.0512 61.11 35.1052 61.146 35.1292 61.218C35.1532 61.278 35.1532 61.344 35.1292 61.416C34.9612 61.932 34.7392 62.34 34.4632 62.64C34.1872 62.94 33.8572 63.09 33.4732 63.09ZM36.9182 53.442C36.7982 53.442 36.7382 53.382 36.7382 53.262V51.48C36.7382 51.36 36.7982 51.3 36.9182 51.3C37.0502 51.3 37.1162 51.36 37.1162 51.48V53.262C37.1162 53.382 37.0502 53.442 36.9182 53.442ZM36.9182 63C36.7982 63 36.7382 62.94 36.7382 62.82V54.594C36.7382 54.474 36.7982 54.414 36.9182 54.414C37.0502 54.414 37.1162 54.474 37.1162 54.594V62.82C37.1162 62.94 37.0502 63 36.9182 63ZM40.2235 63C39.7675 63 39.4015 62.844 39.1255 62.532C38.8615 62.208 38.7295 61.776 38.7295 61.236C38.7295 60.072 39.3175 59.232 40.4935 58.716L42.0775 58.032V56.322C42.0775 55.242 41.7055 54.702 40.9615 54.702C40.3855 54.702 39.8815 55.062 39.4495 55.782C39.4135 55.842 39.3655 55.872 39.3055 55.872C39.1735 55.872 39.1075 55.812 39.1075 55.692C39.1075 55.656 39.1195 55.614 39.1435 55.566C39.6115 54.738 40.2175 54.324 40.9615 54.324C41.9575 54.324 42.4555 54.99 42.4555 56.322V62.208C42.4555 62.484 42.5635 62.622 42.7795 62.622C42.8995 62.622 43.0015 62.58 43.0855 62.496C43.1215 62.46 43.1635 62.442 43.2115 62.442C43.3435 62.442 43.4095 62.508 43.4095 62.64C43.4095 62.688 43.3915 62.73 43.3555 62.766C43.1995 62.922 43.0075 63 42.7795 63C42.3115 63 42.0775 62.736 42.0775 62.208V62.01C41.6815 62.382 41.3395 62.64 41.0515 62.784C40.7755 62.928 40.4995 63 40.2235 63ZM39.1255 61.236C39.1255 61.68 39.2215 62.022 39.4135 62.262C39.6055 62.502 39.8755 62.622 40.2235 62.622C40.4755 62.622 40.7395 62.544 41.0155 62.388C41.2915 62.232 41.6455 61.956 42.0775 61.56V58.446L40.6555 59.058C39.6355 59.502 39.1255 60.228 39.1255 61.236Z" fill="black"/>
</svg>
