<svg width="76" height="76" viewBox="0 0 76 76" fill="none" xmlns="http://www.w3.org/2000/svg">
<g clip-path="url(#clip0)">
<path d="M27.8249 55.3427H5.28217C4.5958 55.3427 4.03931 54.7862 4.03931 54.0998V9.83446C4.03931 9.14809 4.5958 8.59161 5.28217 8.59161H27.8249V55.3427Z" fill="#FF4B55"/>
<path d="M51.6096 8.59145H27.8244V55.343H51.6096V8.59145Z" fill="#F5F5F5"/>
<path d="M74.1534 55.3427H51.6106V8.59145H74.1534C74.8397 8.59145 75.3962 9.14794 75.3962 9.83431V54.0997C75.3962 54.7862 74.8399 55.3427 74.1534 55.3427Z" fill="#FF4B55"/>
<path d="M2.81587 72.1221C1.26068 72.1221 0 70.8614 0 69.3063V6.55739C0 5.015 1.25037 3.76478 2.79275 3.76478H2.81587C4.37107 3.76478 5.63174 5.02546 5.63174 6.58065V69.3065C5.63174 70.8614 4.37107 72.1221 2.81587 72.1221Z" fill="#2E3033"/>
</g>
<defs>
<clipPath id="clip0">
<rect width="75.3962" height="75.3962" fill="white" transform="translate(0 0.2453)"/>
</clipPath>
</defs>
</svg>
