<svg width="48" height="68" viewBox="0 0 48 68" fill="none" xmlns="http://www.w3.org/2000/svg">
<path d="M17.7144 35.077H3.36282C2.92585 35.077 2.57157 34.7227 2.57157 34.2858V6.10481C2.57157 5.66784 2.92585 5.31356 3.36282 5.31356H17.7144V35.077Z" fill="#FF4B55"/>
<path d="M32.8566 5.31346H17.7141V35.0772H32.8566V5.31346Z" fill="#F5F5F5"/>
<path d="M47.2087 35.077H32.8572V5.31346H47.2087C47.6457 5.31346 48 5.66774 48 6.10471V34.2857C48 34.7227 47.6458 35.077 47.2087 35.077Z" fill="#FF4B55"/>
<path d="M1.79269 45.7594C0.802594 45.7594 0 44.9568 0 43.9668V4.01851C0 3.03657 0.796031 2.24063 1.77797 2.24063H1.79269C2.78278 2.24063 3.58537 3.04322 3.58537 4.03332V43.9669C3.58537 44.9568 2.78278 45.7594 1.79269 45.7594Z" fill="#2E3033"/>
<path d="M14.3704 63C14.2504 63 14.1904 62.94 14.1904 62.82V50.76C14.1904 50.64 14.2504 50.58 14.3704 50.58H16.2964C17.0764 50.58 17.6704 50.874 18.0784 51.462C18.4984 52.05 18.7084 52.806 18.7084 53.73C18.7084 54.726 18.4564 55.542 17.9524 56.178C17.4604 56.814 16.7404 57.132 15.7924 57.132C15.6004 57.132 15.3964 57.12 15.1804 57.096C14.9764 57.06 14.7724 57.012 14.5684 56.952V62.82C14.5684 62.94 14.5024 63 14.3704 63ZM16.2964 50.958H14.5684V56.574C15.0244 56.694 15.4324 56.754 15.7924 56.754C16.5724 56.754 17.1844 56.49 17.6284 55.962C18.0844 55.434 18.3124 54.69 18.3124 53.73C18.3124 52.95 18.1504 52.296 17.8264 51.768C17.5024 51.228 16.9924 50.958 16.2964 50.958ZM22.0531 63.09C21.6451 63.09 21.2791 62.904 20.9551 62.532C20.6431 62.148 20.3971 61.626 20.2171 60.966C20.0491 60.306 19.9651 59.55 19.9651 58.698C19.9651 57.846 20.0491 57.09 20.2171 56.43C20.3971 55.77 20.6371 55.254 20.9371 54.882C21.2491 54.51 21.6091 54.324 22.0171 54.324C22.3891 54.324 22.7071 54.48 22.9711 54.792C23.2471 55.092 23.4571 55.512 23.6011 56.052C23.7571 56.58 23.8351 57.186 23.8351 57.87C23.8351 58.062 23.7391 58.158 23.5471 58.158H20.3791C20.3671 58.338 20.3611 58.518 20.3611 58.698C20.3611 59.466 20.4331 60.156 20.5771 60.768C20.7211 61.368 20.9191 61.842 21.1711 62.19C21.4351 62.538 21.7291 62.712 22.0531 62.712C22.3651 62.712 22.6291 62.58 22.8451 62.316C23.0731 62.052 23.2531 61.704 23.3851 61.272C23.4211 61.164 23.4871 61.11 23.5831 61.11C23.6671 61.11 23.7211 61.146 23.7451 61.218C23.7691 61.278 23.7691 61.344 23.7451 61.416C23.5771 61.932 23.3551 62.34 23.0791 62.64C22.8031 62.94 22.4611 63.09 22.0531 63.09ZM22.0171 54.702C21.6091 54.702 21.2551 54.99 20.9551 55.566C20.6671 56.142 20.4811 56.88 20.3971 57.78H23.4571C23.4331 56.904 23.2891 56.172 23.0251 55.584C22.7731 54.996 22.4371 54.702 22.0171 54.702ZM25.6379 63C25.5179 63 25.4579 62.94 25.4579 62.82V54.594C25.4579 54.474 25.5179 54.414 25.6379 54.414C25.7699 54.414 25.8359 54.474 25.8359 54.594V55.314C26.0759 54.954 26.3339 54.702 26.6099 54.558C26.8859 54.402 27.1859 54.324 27.5099 54.324C28.5059 54.324 29.0039 55.032 29.0039 56.448C29.0039 56.592 28.9439 56.664 28.8239 56.664C28.6919 56.664 28.6259 56.592 28.6259 56.448C28.6259 55.8 28.5299 55.35 28.3379 55.098C28.1459 54.834 27.8699 54.702 27.5099 54.702C27.1379 54.702 26.8079 54.816 26.5199 55.044C26.2439 55.26 26.0159 55.536 25.8359 55.872V62.82C25.8359 62.94 25.7699 63 25.6379 63ZM31.7641 63.09C30.7681 63.09 30.2701 62.424 30.2701 61.092V54.594C30.2701 54.474 30.3361 54.414 30.4681 54.414C30.5881 54.414 30.6481 54.474 30.6481 54.594V61.092C30.6481 61.68 30.7441 62.1 30.9361 62.352C31.1281 62.592 31.4041 62.712 31.7641 62.712C32.1361 62.712 32.4601 62.604 32.7361 62.388C33.0241 62.16 33.2581 61.878 33.4381 61.542V54.594C33.4381 54.474 33.5041 54.414 33.6361 54.414C33.7561 54.414 33.8161 54.474 33.8161 54.594V62.82C33.8161 62.94 33.7561 63 33.6361 63C33.5041 63 33.4381 62.94 33.4381 62.82V62.1C33.1981 62.46 32.9401 62.718 32.6641 62.874C32.3881 63.018 32.0881 63.09 31.7641 63.09ZM31.9441 53.406C31.9921 53.43 32.0401 53.436 32.0881 53.424C32.1361 53.412 32.1721 53.388 32.1961 53.352L33.2581 51.588C33.3301 51.492 33.3061 51.408 33.1861 51.336C33.0781 51.276 32.9941 51.294 32.9341 51.39L31.8721 53.154C31.8001 53.25 31.8241 53.334 31.9441 53.406Z" fill="black"/>
</svg>
