<svg width="146" height="146" viewBox="0 0 146 146" fill="none" xmlns="http://www.w3.org/2000/svg">
<circle cx="73.2133" cy="72.7868" r="72.7868" fill="#FA909A"/>
<g clip-path="url(#clip0)">
<path d="M103.454 32.4479C103.943 32.6052 104.187 32.9983 104.148 33.5584L104.118 34.04L104.851 33.9515C105.251 33.9122 106.003 33.8729 106.511 33.8729C107.302 33.8729 107.497 33.9024 107.829 34.0989C108.161 34.2955 108.659 34.8458 108.659 35.0227C108.659 35.0522 108.444 35.1013 108.19 35.1406C107.536 35.229 106.794 35.6221 106.267 36.1528C105.827 36.6049 104.948 38.1772 105.065 38.2951C105.095 38.3344 105.29 38.3148 105.505 38.2558C106.511 37.9708 108.249 38.2558 109.713 38.9437C112.282 40.1426 113.551 41.9902 112.867 43.5035C112.77 43.7296 112.408 44.1521 112.076 44.4666C111.696 44.8106 111.491 45.0661 111.549 45.1152C111.598 45.1643 112.057 45.3707 112.565 45.5673C115.855 46.8546 118.912 48.879 120.679 50.9427C124.468 55.3748 123.726 60.0427 119.048 61.2416C118.629 61.3497 118.17 61.4382 118.013 61.4382C117.867 61.4382 117.74 61.4775 117.74 61.5266C117.74 61.7232 118.57 62.8435 118.951 63.1579C119.917 63.9539 120.972 64.2389 122.622 64.1603C123.95 64.1013 124.741 63.8851 125.991 63.266C126.811 62.8533 126.997 62.6961 128.92 60.7994C130.053 59.6889 131.215 58.6079 131.508 58.4114C132.319 57.8709 133.031 57.6056 133.705 57.6056C134.506 57.6056 134.955 57.8807 135.355 58.5883C135.629 59.0796 135.658 59.2074 135.658 59.9641C135.658 60.7404 135.629 60.8584 135.248 61.6544C135.023 62.1162 134.506 63.0007 134.086 63.61C133.324 64.7106 133.324 64.7303 133.246 65.5165C133.149 66.5385 132.738 67.3935 131.791 68.5138C130.756 69.7422 130.756 69.752 131 70.0173C131.86 70.9411 131.811 72.8869 130.883 74.4396C129.702 76.405 127.69 77.6825 125.454 77.8987C124.771 77.9577 123.472 77.8496 123.071 77.6924C122.925 77.6334 122.905 77.6629 122.964 77.8398C123.091 78.2427 123.023 79.9428 122.866 80.5422C122.632 81.4365 122.163 82.2129 121.509 82.8418C120.435 83.8442 119.341 84.2667 117.789 84.2667C116.461 84.2667 115.182 83.8638 113.912 83.0482L113.453 82.7435L113.18 82.9401C112.653 83.3135 112.076 83.5494 111.705 83.5494C110.836 83.5494 108.454 84.0604 105.778 84.8269C101.941 85.9275 99.9488 86.3599 98.2107 86.4582C97.3123 86.5172 97.2049 86.4975 94.9884 85.9275C91.2387 84.9645 88.6218 84.0407 86.2197 82.8221C85.0382 82.2227 83.3587 81.1319 82.6263 80.4833C82.1576 80.0607 82.1283 80.0411 80.8785 79.8445C80.1754 79.7266 79.1892 79.4907 78.6814 79.3237C77.5194 78.9502 75.4688 77.9479 74.4143 77.2501C72.8714 76.2183 65.3429 69.919 62.2768 67.079C60.0798 65.0448 55.7247 60.4948 54.592 59.0502C54.3479 58.7259 54.387 58.7357 52.8344 58.8733C52.0239 58.9421 51.3307 58.9519 50.6374 58.8831C48.5868 58.6866 47.4834 58.2247 46.2726 57.0552C45.8332 56.6228 45.218 56.102 44.9153 55.8956C43.3139 54.7852 40.0916 53.6747 36.8399 53.0851C36.4591 53.0261 35.1799 52.6428 33.9887 52.2399C32.7974 51.837 31.6158 51.4832 31.3717 51.4537C30.9714 51.3948 30.9323 51.4046 30.9323 51.5913C30.9323 51.6994 30.9714 51.8272 31.03 51.8567C31.0788 51.8861 31.1179 52.0139 31.1179 52.1318C31.1081 52.2497 31.196 52.859 31.3131 53.4781C31.4206 54.0973 31.5865 55.5124 31.6744 56.6228C31.7525 57.7333 31.9088 59.06 32.0064 59.5808C32.1724 60.4751 32.5435 61.5364 32.6802 61.5364C32.7193 61.5364 32.8657 61.1925 33.0219 60.7699C34.1644 57.6449 35.4143 55.7384 36.4982 55.4436C37.582 55.1488 39.2127 56.1217 40.2576 57.7137C40.9411 58.7259 41.7222 60.367 41.9273 61.1532C42.1617 62.0671 42.1519 63.5019 41.9273 64.3863C41.4293 66.2732 40.0818 67.9438 38.4804 68.6808C37.6797 69.0542 36.5275 69.1132 35.8635 68.8184C35.385 68.6022 35.0335 68.5531 35.0335 68.6906C35.0335 69.182 36.752 72.4839 37.748 73.9187C38.3339 74.754 39.74 77.3189 40.0134 78.0363C40.2087 78.5768 40.2966 78.6751 41.1657 79.3433C43.0209 80.7486 44.886 82.8418 45.9113 84.6697C46.4093 85.5443 46.4483 85.8391 46.0675 85.8882C45.7746 85.9275 44.9934 86.2027 44.8274 86.3206C44.7493 86.3796 44.8372 86.5368 45.1301 86.8316C46.4776 88.1878 47.9423 91.8926 48.3134 94.8899C48.4794 96.1871 48.3915 98.2017 48.1279 99.2139C47.6787 100.914 46.8389 102.182 45.4816 103.155C44.7005 103.725 44.6614 103.774 44.6419 104.147C44.6126 104.688 44.0951 105.906 43.5092 106.81C41.859 109.356 39.1249 110.928 35.1799 111.577C33.9984 111.763 30.6589 111.734 29.2821 111.527C24.6048 110.79 21.0505 108.786 20.7869 106.732C20.7283 106.24 20.7283 106.231 20.2205 106.054C19.3612 105.749 18.7168 105.346 17.9258 104.589C15.885 102.663 14.6254 99.5087 14.6156 96.3149C14.6156 95.0275 14.7816 94.1332 15.1624 93.3766C15.3968 92.9147 15.3968 92.8754 15.2405 92.8262C14.518 92.61 13.3364 91.588 12.5064 90.4874C11.3737 88.9641 10.6414 86.2125 10.7488 83.8933C10.8172 82.4291 11.0417 81.5151 11.6081 80.4047C12.3502 78.9601 12.9068 78.282 14.6547 76.69C15.7288 75.7073 16.0315 75.0292 15.9436 73.732C15.9143 73.2799 15.9241 72.9262 15.9534 72.9556C16.0608 73.0637 16.2854 74.3609 16.2854 74.8621C16.2854 75.1471 16.217 75.5992 16.1194 75.8743C16.0315 76.1495 15.9924 76.405 16.0217 76.4345C16.051 76.464 16.5295 76.3755 17.0861 76.2183C17.9649 75.9726 18.2676 75.9431 19.5077 75.9333C20.7478 75.9333 21.0114 75.9628 21.6364 76.1691C22.027 76.2969 22.6226 76.5721 22.9546 76.7686C23.3061 76.9848 23.6284 77.1125 23.7358 77.0831C24.0385 77.0044 24.2826 76.2969 24.9759 73.4568C25.3762 71.855 25.7278 70.6463 25.8547 70.4301C25.9719 70.2433 26.05 70.0271 26.0207 69.9584C26.0012 69.8994 25.7375 69.7618 25.4544 69.6537C23.2573 68.897 21.1579 66.3125 19.7128 62.5683C19.1562 61.1532 19.1855 60.4751 19.8202 59.9051C19.9373 59.7872 20.4158 59.5022 20.865 59.2664C21.3141 59.0305 21.7633 58.7259 21.861 58.5981C22.0953 58.3033 22.7203 58.1559 23.1987 58.2935C23.9604 58.4998 24.6537 59.0305 26.216 60.5832C27.0948 61.448 27.8174 62.1457 27.8369 62.1162C27.8565 62.0966 27.9248 61.8116 27.9834 61.4971C28.1592 60.6225 28.1201 58.6276 27.9053 56.8784C27.7002 55.2077 27.6612 53.3209 27.8076 52.5937C28.081 51.3063 28.0908 51.2474 27.8369 51.1294C27.71 51.0705 26.4113 50.8051 24.9466 50.53C21.3532 49.8716 18.3262 49.2623 15.8948 48.7218C15.3284 48.594 14.5473 48.4368 14.1567 48.368C13.4927 48.2599 13.1607 48.0928 13.1607 47.857C13.1607 47.798 13.2779 47.7784 13.4731 47.8275C13.9516 47.9258 14.3617 47.9258 16.8224 47.7882C21.2067 47.5327 28.4716 47.8963 36.4982 48.7611C37.0059 48.8201 38.2558 48.9478 39.2811 49.0559C40.2966 49.164 41.527 49.2918 42.0152 49.3507C43.4604 49.508 44.6907 49.6357 45.8136 49.734L46.878 49.8421L47.2979 49.5669C47.5322 49.4195 47.7177 49.2525 47.7275 49.1935C47.7275 49.1345 47.6396 48.8299 47.5322 48.5154C47.249 47.6998 47.3467 47.6211 47.7177 48.3484C47.8935 48.6923 48.0693 48.9576 48.1083 48.938C48.2353 48.8888 49.4558 47.4442 50.1296 46.55C50.4518 46.1176 51.3697 44.8106 52.1704 43.6509C54.0452 40.9092 54.426 40.4178 54.719 40.349C55.1096 40.2507 55.5587 40.3883 55.8907 40.7126C56.1056 40.919 56.3301 41.0271 56.7207 41.0861C57.0137 41.1352 57.2676 41.1548 57.2968 41.1254C57.3847 41.0369 56.7598 40.5947 55.9493 40.1918C55.5099 39.9658 55.1584 39.7692 55.1779 39.7496C55.2463 39.6906 56.2813 40.0444 56.8281 40.3195C57.2676 40.5357 57.3945 40.5652 57.3945 40.4473C57.3945 40.3687 57.2968 40.2704 57.1699 40.2213C57.043 40.1721 56.8184 40.0247 56.6524 39.897C56.4961 39.779 56.2325 39.5727 56.0665 39.4547C55.715 39.2091 54.0843 38.4229 53.5668 38.2558C53.1762 38.1281 52.9906 37.9512 53.2445 37.9512C53.6156 37.9512 55.3634 38.2755 56.3692 38.5408C59.1228 39.2582 61.2125 40.408 62.9603 42.1769C66.085 45.3216 67.0908 49.9993 65.4698 53.9499C65.0012 55.08 63.7708 56.6622 63.0189 57.0847C62.7357 57.242 62.8627 57.4385 64.0735 58.7455C65.7237 60.5046 67.9012 62.2243 70.5279 63.8262C73.0277 65.3592 74.7951 66.1257 76.3379 66.3518C78.0076 66.5975 78.7791 66.2338 80.9273 64.1407C82.7142 62.4012 83.3684 61.9885 84.8429 61.6937C85.0968 61.6347 85.0968 61.6347 85.1651 60.3375C85.6924 50.4415 90.6529 39.9461 97.0878 35.1013C98.1423 34.3151 99.2946 33.5977 100.164 33.2046C100.515 33.0474 101.023 32.8214 101.306 32.6838C101.872 32.4185 102.966 32.3005 103.454 32.4479Z" fill="white"/>
</g>
<path d="M55.4908 138C55.2908 138 55.1908 137.9 55.1908 137.7L56.5708 117.6C56.5708 117.4 56.6708 117.3 56.8708 117.3C56.9708 117.3 57.0608 117.34 57.1408 117.42L60.8908 120.78C61.2508 121.1 61.5708 121.41 61.8508 121.71C62.1308 121.41 62.4508 121.1 62.8108 120.78L66.5608 117.42C66.6408 117.34 66.7308 117.3 66.8308 117.3C67.0308 117.3 67.1308 117.4 67.1308 117.6L68.5108 137.7C68.5108 137.9 68.4108 138 68.2108 138C67.9908 138 67.8808 137.9 67.8808 137.7L66.5608 118.29L63.2008 121.26C62.8408 121.58 62.5308 121.89 62.2708 122.19C62.6708 122.69 62.9508 123.17 63.1108 123.63C63.2908 124.09 63.3808 124.56 63.3808 125.04C63.3808 125.58 63.2808 126.07 63.0808 126.51C62.9008 126.95 62.6908 127.38 62.4508 127.8C62.3508 127.98 62.2708 128.13 62.2108 128.25C62.4108 128.65 62.5808 129.1 62.7208 129.6C62.8808 130.1 62.9608 130.67 62.9608 131.31C62.9608 131.85 62.8608 132.36 62.6608 132.84C62.4608 133.3 62.1908 133.53 61.8508 133.53C61.5108 133.53 61.2408 133.3 61.0408 132.84C60.8408 132.36 60.7408 131.85 60.7408 131.31C60.7408 130.67 60.8108 130.1 60.9508 129.6C61.1108 129.1 61.2908 128.65 61.4908 128.25C61.4308 128.13 61.3508 127.98 61.2508 127.8C61.0108 127.38 60.7908 126.95 60.5908 126.51C60.4108 126.07 60.3208 125.58 60.3208 125.04C60.3208 124.08 60.6908 123.13 61.4308 122.19C61.1708 121.89 60.8608 121.58 60.5008 121.26L57.1408 118.29L55.8208 137.7C55.8208 137.9 55.7108 138 55.4908 138ZM61.7908 127.47L61.8508 127.59L61.9108 127.47C62.1308 127.07 62.3208 126.68 62.4808 126.3C62.6608 125.9 62.7508 125.48 62.7508 125.04C62.7508 124.26 62.4508 123.47 61.8508 122.67C61.2508 123.47 60.9508 124.26 60.9508 125.04C60.9508 125.48 61.0308 125.9 61.1908 126.3C61.3708 126.68 61.5708 127.07 61.7908 127.47ZM61.3708 131.31C61.3708 131.65 61.4208 131.98 61.5208 132.3C61.6208 132.62 61.7308 132.81 61.8508 132.87C61.9508 132.81 62.0508 132.62 62.1508 132.3C62.2708 131.98 62.3308 131.65 62.3308 131.31C62.3308 130.85 62.2808 130.43 62.1808 130.05C62.1008 129.67 61.9908 129.31 61.8508 128.97C61.7108 129.31 61.5908 129.67 61.4908 130.05C61.4108 130.43 61.3708 130.85 61.3708 131.31ZM73.8562 138.15C72.1962 138.15 71.3662 137.04 71.3662 134.82V123.99C71.3662 123.79 71.4762 123.69 71.6962 123.69C71.8962 123.69 71.9962 123.79 71.9962 123.99V134.82C71.9962 135.8 72.1562 136.5 72.4762 136.92C72.7962 137.32 73.2562 137.52 73.8562 137.52C74.4762 137.52 75.0162 137.34 75.4762 136.98C75.9562 136.6 76.3462 136.13 76.6462 135.57V123.99C76.6462 123.79 76.7562 123.69 76.9762 123.69C77.1762 123.69 77.2762 123.79 77.2762 123.99V137.7C77.2762 137.9 77.1762 138 76.9762 138C76.7562 138 76.6462 137.9 76.6462 137.7V136.5C76.2462 137.1 75.8162 137.53 75.3562 137.79C74.8962 138.03 74.3962 138.15 73.8562 138.15ZM81.1654 122.07C80.9654 122.07 80.8654 121.97 80.8654 121.77V118.8C80.8654 118.6 80.9654 118.5 81.1654 118.5C81.3854 118.5 81.4954 118.6 81.4954 118.8V121.77C81.4954 121.97 81.3854 122.07 81.1654 122.07ZM77.0554 143.61C76.8554 143.61 76.7554 143.5 76.7554 143.28C76.7554 143.08 76.8554 142.98 77.0554 142.98C78.3754 142.98 79.3354 142.66 79.9354 142.02C80.5554 141.38 80.8654 140.37 80.8654 138.99V123.99C80.8654 123.79 80.9654 123.69 81.1654 123.69C81.3854 123.69 81.4954 123.79 81.4954 123.99V138.99C81.4954 142.07 80.0154 143.61 77.0554 143.61ZM87.9642 138.15C87.2842 138.15 86.6742 137.84 86.1342 137.22C85.6142 136.58 85.2042 135.71 84.9042 134.61C84.6242 133.51 84.4842 132.25 84.4842 130.83C84.4842 129.41 84.6242 128.15 84.9042 127.05C85.2042 125.95 85.6042 125.09 86.1042 124.47C86.6242 123.85 87.2242 123.54 87.9042 123.54C88.5242 123.54 89.0542 123.8 89.4942 124.32C89.9542 124.82 90.3042 125.52 90.5442 126.42C90.8042 127.3 90.9342 128.31 90.9342 129.45C90.9342 129.77 90.7742 129.93 90.4542 129.93H85.1742C85.1542 130.23 85.1442 130.53 85.1442 130.83C85.1442 132.11 85.2642 133.26 85.5042 134.28C85.7442 135.28 86.0742 136.07 86.4942 136.65C86.9342 137.23 87.4242 137.52 87.9642 137.52C88.4842 137.52 88.9242 137.3 89.2842 136.86C89.6642 136.42 89.9642 135.84 90.1842 135.12C90.2442 134.94 90.3542 134.85 90.5142 134.85C90.6542 134.85 90.7442 134.91 90.7842 135.03C90.8242 135.13 90.8242 135.24 90.7842 135.36C90.5042 136.22 90.1342 136.9 89.6742 137.4C89.2142 137.9 88.6442 138.15 87.9642 138.15ZM87.9042 124.17C87.2242 124.17 86.6342 124.65 86.1342 125.61C85.6542 126.57 85.3442 127.8 85.2042 129.3H90.3042C90.2642 127.84 90.0242 126.62 89.5842 125.64C89.1642 124.66 88.6042 124.17 87.9042 124.17ZM93.9389 138C93.7389 138 93.6389 137.9 93.6389 137.7V123.99C93.6389 123.79 93.7389 123.69 93.9389 123.69C94.1589 123.69 94.2689 123.79 94.2689 123.99V125.19C94.6689 124.59 95.0989 124.17 95.5589 123.93C96.0189 123.67 96.5189 123.54 97.0589 123.54C98.7189 123.54 99.5489 124.72 99.5489 127.08C99.5489 127.32 99.4489 127.44 99.2489 127.44C99.0289 127.44 98.9189 127.32 98.9189 127.08C98.9189 126 98.7589 125.25 98.4389 124.83C98.1189 124.39 97.6589 124.17 97.0589 124.17C96.4389 124.17 95.8889 124.36 95.4089 124.74C94.9489 125.1 94.5689 125.56 94.2689 126.12V137.7C94.2689 137.9 94.1589 138 93.9389 138Z" fill="black"/>
<defs>
<clipPath id="clip0">
<rect width="124.987" height="79.4037" fill="white" transform="matrix(-1 0 0 1 135.707 32.3497)"/>
</clipPath>
</defs>
</svg>
