<svg width="146" height="146" viewBox="0 0 146 146" fill="none" xmlns="http://www.w3.org/2000/svg">
<circle cx="72.7868" cy="72.7868" r="72.7868" fill="#73CFD9"/>
<g clip-path="url(#clip0)">
<path d="M42.5457 32.4479C42.0575 32.6052 41.8134 32.9983 41.8524 33.5584L41.8817 34.04L41.1494 33.9515C40.749 33.9122 39.9972 33.8729 39.4894 33.8729C38.6985 33.8729 38.5032 33.9024 38.1712 34.0989C37.8392 34.2955 37.3412 34.8458 37.3412 35.0227C37.3412 35.0522 37.556 35.1013 37.8099 35.1406C38.4641 35.229 39.2062 35.6221 39.7335 36.1528C40.1729 36.6049 41.0517 38.1772 40.9346 38.2951C40.9053 38.3344 40.71 38.3148 40.4952 38.2558C39.4894 37.9708 37.7513 38.2558 36.2866 38.9437C33.7185 40.1426 32.4491 41.9902 33.1326 43.5035C33.2303 43.7296 33.5916 44.1521 33.9236 44.4666C34.3044 44.8106 34.5094 45.0661 34.4508 45.1152C34.402 45.1643 33.9431 45.3707 33.4353 45.5673C30.1446 46.8546 27.0883 48.879 25.3209 50.9427C21.5322 55.3748 22.2743 60.0427 26.9516 61.2416C27.3715 61.3497 27.8304 61.4382 27.9867 61.4382C28.1331 61.4382 28.2601 61.4775 28.2601 61.5266C28.2601 61.7232 27.4301 62.8435 27.0492 63.1579C26.0825 63.9539 25.028 64.2389 23.3777 64.1603C22.0498 64.1013 21.2588 63.8851 20.0089 63.266C19.1887 62.8533 19.0032 62.6961 17.0796 60.7994C15.9469 59.6889 14.7849 58.6079 14.4919 58.4114C13.6815 57.8709 12.9686 57.6056 12.2949 57.6056C11.4942 57.6056 11.045 57.8807 10.6447 58.5883C10.3712 59.0796 10.3419 59.2074 10.3419 59.9641C10.3419 60.7404 10.3712 60.8584 10.7521 61.6544C10.9767 62.1162 11.4942 63.0007 11.9141 63.61C12.6757 64.7106 12.6757 64.7303 12.7538 65.5165C12.8515 66.5385 13.2616 67.3935 14.2087 68.5138C15.2438 69.7422 15.2438 69.752 14.9997 70.0173C14.1404 70.9411 14.1892 72.8869 15.1169 74.4396C16.2984 76.405 18.3099 77.6825 20.546 77.8987C21.2295 77.9577 22.5282 77.8496 22.9286 77.6924C23.075 77.6334 23.0946 77.6629 23.036 77.8398C22.909 78.2427 22.9774 79.9428 23.1336 80.5422C23.368 81.4365 23.8367 82.2129 24.4909 82.8418C25.565 83.8442 26.6587 84.2667 28.2112 84.2667C29.5392 84.2667 30.8184 83.8638 32.0878 83.0482L32.5467 82.7435L32.8202 82.9401C33.3474 83.3135 33.9236 83.5494 34.2946 83.5494C35.1637 83.5494 37.5462 84.0604 40.2217 84.8269C44.0592 85.9275 46.0512 86.3599 47.7893 86.4582C48.6877 86.5172 48.7951 86.4975 51.0117 85.9275C54.7613 84.9645 57.3782 84.0407 59.7803 82.8221C60.9618 82.2227 62.6414 81.1319 63.3737 80.4833C63.8424 80.0607 63.8717 80.0411 65.1216 79.8445C65.8246 79.7266 66.8109 79.4907 67.3186 79.3237C68.4806 78.9502 70.5312 77.9479 71.5858 77.2501C73.1286 76.2183 80.6571 69.919 83.7232 67.079C85.9203 65.0448 90.2753 60.4948 91.408 59.0502C91.6521 58.7259 91.613 58.7357 93.1656 58.8733C93.9761 58.9421 94.6694 58.9519 95.3627 58.8831C97.4132 58.6866 98.5166 58.2247 99.7275 57.0552C100.167 56.6228 100.782 56.102 101.085 55.8956C102.686 54.7852 105.908 53.6747 109.16 53.0851C109.541 53.0261 110.82 52.6428 112.011 52.2399C113.203 51.837 114.384 51.4832 114.628 51.4537C115.029 51.3948 115.068 51.4046 115.068 51.5913C115.068 51.6994 115.029 51.8272 114.97 51.8567C114.921 51.8861 114.882 52.0139 114.882 52.1318C114.892 52.2497 114.804 52.859 114.687 53.4781C114.579 54.0973 114.413 55.5124 114.326 56.6228C114.247 57.7333 114.091 59.06 113.994 59.5808C113.828 60.4751 113.457 61.5364 113.32 61.5364C113.281 61.5364 113.134 61.1925 112.978 60.7699C111.836 57.6449 110.586 55.7384 109.502 55.4436C108.418 55.1488 106.787 56.1217 105.742 57.7137C105.059 58.7259 104.278 60.367 104.073 61.1532C103.838 62.0671 103.848 63.5019 104.073 64.3863C104.571 66.2732 105.918 67.9438 107.52 68.6808C108.32 69.0542 109.473 69.1132 110.137 68.8184C110.615 68.6022 110.967 68.5531 110.967 68.6906C110.967 69.182 109.248 72.4839 108.252 73.9187C107.666 74.754 106.26 77.3189 105.987 78.0363C105.791 78.5768 105.703 78.6751 104.834 79.3433C102.979 80.7486 101.114 82.8418 100.089 84.6697C99.5908 85.5443 99.5517 85.8391 99.9325 85.8882C100.225 85.9275 101.007 86.2027 101.173 86.3206C101.251 86.3796 101.163 86.5368 100.87 86.8316C99.5224 88.1878 98.0577 91.8926 97.6867 94.8899C97.5207 96.1871 97.6085 98.2017 97.8722 99.2139C98.3214 100.914 99.1611 102.182 100.518 103.155C101.3 103.725 101.339 103.774 101.358 104.147C101.387 104.688 101.905 105.906 102.491 106.81C104.141 109.356 106.875 110.928 110.82 111.577C112.002 111.763 115.341 111.734 116.718 111.527C121.395 110.79 124.95 108.786 125.213 106.732C125.272 106.24 125.272 106.231 125.78 106.054C126.639 105.749 127.283 105.346 128.074 104.589C130.115 102.663 131.375 99.5087 131.384 96.3149C131.384 95.0275 131.218 94.1332 130.838 93.3766C130.603 92.9147 130.603 92.8754 130.759 92.8262C131.482 92.61 132.664 91.588 133.494 90.4874C134.626 88.9641 135.359 86.2125 135.251 83.8933C135.183 82.4291 134.958 81.5151 134.392 80.4047C133.65 78.9601 133.093 78.282 131.345 76.69C130.271 75.7073 129.969 75.0292 130.056 73.732C130.086 73.2799 130.076 72.9262 130.047 72.9556C129.939 73.0637 129.715 74.3609 129.715 74.8621C129.715 75.1471 129.783 75.5992 129.881 75.8743C129.969 76.1495 130.008 76.405 129.978 76.4345C129.949 76.464 129.471 76.3755 128.914 76.2183C128.035 75.9726 127.732 75.9431 126.492 75.9333C125.252 75.9333 124.989 75.9628 124.364 76.1691C123.973 76.2969 123.377 76.5721 123.045 76.7686C122.694 76.9848 122.372 77.1125 122.264 77.0831C121.962 77.0044 121.717 76.2969 121.024 73.4568C120.624 71.855 120.272 70.6463 120.145 70.4301C120.028 70.2433 119.95 70.0271 119.979 69.9584C119.999 69.8994 120.262 69.7618 120.546 69.6537C122.743 68.897 124.842 66.3125 126.287 62.5683C126.844 61.1532 126.815 60.4751 126.18 59.9051C126.063 59.7872 125.584 59.5022 125.135 59.2664C124.686 59.0305 124.237 58.7259 124.139 58.5981C123.905 58.3033 123.28 58.1559 122.801 58.2935C122.04 58.4998 121.346 59.0305 119.784 60.5832C118.905 61.448 118.183 62.1457 118.163 62.1162C118.144 62.0966 118.075 61.8116 118.017 61.4971C117.841 60.6225 117.88 58.6276 118.095 56.8784C118.3 55.2077 118.339 53.3209 118.192 52.5937C117.919 51.3063 117.909 51.2474 118.163 51.1294C118.29 51.0705 119.589 50.8051 121.053 50.53C124.647 49.8716 127.674 49.2623 130.105 48.7218C130.672 48.594 131.453 48.4368 131.843 48.368C132.507 48.2599 132.839 48.0928 132.839 47.857C132.839 47.798 132.722 47.7784 132.527 47.8275C132.048 47.9258 131.638 47.9258 129.178 47.7882C124.793 47.5327 117.528 47.8963 109.502 48.7611C108.994 48.8201 107.744 48.9478 106.719 49.0559C105.703 49.164 104.473 49.2918 103.985 49.3507C102.54 49.508 101.309 49.6357 100.186 49.734L99.1221 49.8421L98.7022 49.5669C98.4678 49.4195 98.2823 49.2525 98.2725 49.1935C98.2725 49.1345 98.3604 48.8299 98.4678 48.5154C98.751 47.6998 98.6534 47.6211 98.2823 48.3484C98.1065 48.6923 97.9308 48.9576 97.8917 48.938C97.7648 48.8888 96.5442 47.4442 95.8704 46.55C95.5482 46.1176 94.6303 44.8106 93.8296 43.6509C91.9548 40.9092 91.574 40.4178 91.281 40.349C90.8905 40.2507 90.4413 40.3883 90.1093 40.7126C89.8945 40.919 89.6699 41.0271 89.2793 41.0861C88.9864 41.1352 88.7325 41.1548 88.7032 41.1254C88.6153 41.0369 89.2402 40.5947 90.0507 40.1918C90.4901 39.9658 90.8416 39.7692 90.8221 39.7496C90.7538 39.6906 89.7187 40.0444 89.1719 40.3195C88.7325 40.5357 88.6055 40.5652 88.6055 40.4473C88.6055 40.3687 88.7032 40.2704 88.8301 40.2213C88.9571 40.1721 89.1816 40.0247 89.3476 39.897C89.5039 39.779 89.7675 39.5727 89.9335 39.4547C90.2851 39.2091 91.9157 38.4229 92.4333 38.2558C92.8239 38.1281 93.0094 37.9512 92.7555 37.9512C92.3845 37.9512 90.6366 38.2755 89.6308 38.5408C86.8772 39.2582 84.7876 40.408 83.0397 42.1769C79.915 45.3216 78.9092 49.9993 80.5302 53.9499C80.9989 55.08 82.2292 56.6622 82.9811 57.0847C83.2643 57.242 83.1373 57.4385 81.9265 58.7455C80.2763 60.5046 78.0988 62.2243 75.4721 63.8262C72.9723 65.3592 71.2049 66.1257 69.6621 66.3518C67.9924 66.5975 67.221 66.2338 65.0728 64.1407C63.2858 62.4012 62.6316 61.9885 61.1571 61.6937C60.9033 61.6347 60.9033 61.6347 60.8349 60.3375C60.3076 50.4415 55.3472 39.9461 48.9123 35.1013C47.8577 34.3151 46.7055 33.5977 45.8364 33.2046C45.4849 33.0474 44.9771 32.8214 44.694 32.6838C44.1276 32.4185 43.034 32.3005 42.5457 32.4479Z" fill="white"/>
</g>
<path d="M44.3783 132C44.1783 132 44.0783 131.9 44.0783 131.7V111.6C44.0783 111.4 44.1783 111.3 44.3783 111.3C44.5983 111.3 44.7083 111.4 44.7083 111.6V120.57H52.5983V111.6C52.5983 111.4 52.6983 111.3 52.8983 111.3C53.1183 111.3 53.2283 111.4 53.2283 111.6V131.7C53.2283 131.9 53.1183 132 52.8983 132C52.6983 132 52.5983 131.9 52.5983 131.7V121.2H44.7083V131.7C44.7083 131.9 44.5983 132 44.3783 132ZM59.6425 132.15C58.9625 132.15 58.3625 131.84 57.8425 131.22C57.3425 130.6 56.9425 129.74 56.6425 128.64C56.3625 127.54 56.2225 126.27 56.2225 124.83C56.2225 123.39 56.3625 122.13 56.6425 121.05C56.9425 119.95 57.3425 119.09 57.8425 118.47C58.3625 117.85 58.9625 117.54 59.6425 117.54C60.3225 117.54 60.9125 117.86 61.4125 118.5C61.9325 119.12 62.3425 119.98 62.6425 121.08C62.9425 122.16 63.0925 123.41 63.0925 124.83C63.0925 126.25 62.9425 127.51 62.6425 128.61C62.3425 129.71 61.9325 130.58 61.4125 131.22C60.9125 131.84 60.3225 132.15 59.6425 132.15ZM59.6425 131.52C60.1825 131.52 60.6625 131.23 61.0825 130.65C61.5025 130.07 61.8325 129.28 62.0725 128.28C62.3125 127.26 62.4325 126.11 62.4325 124.83C62.4325 123.55 62.3125 122.41 62.0725 121.41C61.8325 120.41 61.5025 119.62 61.0825 119.04C60.6625 118.46 60.1825 118.17 59.6425 118.17C59.1225 118.17 58.6525 118.46 58.2325 119.04C57.8125 119.62 57.4825 120.41 57.2425 121.41C57.0025 122.41 56.8825 123.55 56.8825 124.83C56.8825 126.11 57.0025 127.26 57.2425 128.28C57.4825 129.28 57.8125 130.07 58.2325 130.65C58.6525 131.23 59.1225 131.52 59.6425 131.52ZM66.3803 132C66.1803 132 66.0803 131.9 66.0803 131.7V117.99C66.0803 117.79 66.1803 117.69 66.3803 117.69C66.4403 117.69 66.5403 117.73 66.6803 117.81C68.4003 118.79 69.6903 119.93 70.5503 121.23C71.3903 119.93 72.6703 118.79 74.3903 117.81C74.5303 117.73 74.6303 117.69 74.6903 117.69C74.8903 117.69 74.9903 117.79 74.9903 117.99V131.7C74.9903 131.9 74.8903 132 74.6903 132C74.4703 132 74.3603 131.9 74.3603 131.7V118.56C72.7603 119.56 71.6103 120.66 70.9103 121.86C71.4103 122.84 71.6603 123.87 71.6603 124.95C71.6603 125.59 71.5603 126.16 71.3603 126.66C71.1803 127.14 70.9003 127.38 70.5203 127.38C70.1603 127.38 69.8803 127.14 69.6803 126.66C69.5003 126.16 69.4103 125.59 69.4103 124.95C69.4103 123.87 69.6603 122.84 70.1603 121.86C69.4603 120.66 68.3103 119.56 66.7103 118.56V131.7C66.7103 131.9 66.6003 132 66.3803 132ZM70.0403 124.95C70.0403 125.39 70.0903 125.8 70.1903 126.18C70.3103 126.54 70.4203 126.72 70.5203 126.72C70.6203 126.72 70.7303 126.54 70.8503 126.18C70.9703 125.8 71.0303 125.39 71.0303 124.95C71.0303 124.11 70.8703 123.32 70.5503 122.58C70.2103 123.32 70.0403 124.11 70.0403 124.95ZM78.5971 132C78.3971 132 78.2971 131.9 78.2971 131.7V110.91C78.2971 110.71 78.3971 110.61 78.5971 110.61C78.8171 110.61 78.9271 110.71 78.9271 110.91V118.86C79.5271 117.98 80.2471 117.54 81.0871 117.54C81.7871 117.54 82.3671 117.86 82.8271 118.5C83.3071 119.12 83.6571 119.98 83.8771 121.08C84.1171 122.16 84.2371 123.41 84.2371 124.83C84.2371 126.25 84.1171 127.51 83.8771 128.61C83.6571 129.71 83.3071 130.58 82.8271 131.22C82.3671 131.84 81.7871 132.15 81.0871 132.15C80.2471 132.15 79.5271 131.71 78.9271 130.83V131.7C78.9271 131.9 78.8171 132 78.5971 132ZM81.0871 118.17C80.7071 118.17 80.3171 118.32 79.9171 118.62C79.5171 118.92 79.1871 119.34 78.9271 119.88V129.78C79.1871 130.34 79.5171 130.77 79.9171 131.07C80.3171 131.37 80.7071 131.52 81.0871 131.52C81.6471 131.52 82.1071 131.23 82.4671 130.65C82.8471 130.07 83.1271 129.28 83.3071 128.28C83.4871 127.26 83.5771 126.11 83.5771 124.83C83.5771 123.55 83.4871 122.41 83.3071 121.41C83.1271 120.41 82.8471 119.62 82.4671 119.04C82.1071 118.46 81.6471 118.17 81.0871 118.17ZM87.5326 132C87.3326 132 87.2326 131.9 87.2326 131.7V117.99C87.2326 117.79 87.3326 117.69 87.5326 117.69C87.7526 117.69 87.8626 117.79 87.8626 117.99V119.19C88.2626 118.59 88.6926 118.17 89.1526 117.93C89.6126 117.67 90.1126 117.54 90.6526 117.54C92.3126 117.54 93.1426 118.72 93.1426 121.08C93.1426 121.32 93.0426 121.44 92.8426 121.44C92.6226 121.44 92.5126 121.32 92.5126 121.08C92.5126 120 92.3526 119.25 92.0326 118.83C91.7126 118.39 91.2526 118.17 90.6526 118.17C90.0326 118.17 89.4826 118.36 89.0026 118.74C88.5426 119.1 88.1626 119.56 87.8626 120.12V131.7C87.8626 131.9 87.7526 132 87.5326 132ZM97.847 132.15C97.167 132.15 96.557 131.84 96.017 131.22C95.497 130.58 95.087 129.71 94.787 128.61C94.507 127.51 94.367 126.25 94.367 124.83C94.367 123.41 94.507 122.15 94.787 121.05C95.087 119.95 95.487 119.09 95.987 118.47C96.507 117.85 97.107 117.54 97.787 117.54C98.407 117.54 98.937 117.8 99.377 118.32C99.837 118.82 100.187 119.52 100.427 120.42C100.687 121.3 100.817 122.31 100.817 123.45C100.817 123.77 100.657 123.93 100.337 123.93H95.057C95.037 124.23 95.027 124.53 95.027 124.83C95.027 126.11 95.147 127.26 95.387 128.28C95.627 129.28 95.957 130.07 96.377 130.65C96.817 131.23 97.307 131.52 97.847 131.52C98.367 131.52 98.807 131.3 99.167 130.86C99.547 130.42 99.847 129.84 100.067 129.12C100.127 128.94 100.237 128.85 100.397 128.85C100.537 128.85 100.627 128.91 100.667 129.03C100.707 129.13 100.707 129.24 100.667 129.36C100.387 130.22 100.017 130.9 99.557 131.4C99.097 131.9 98.527 132.15 97.847 132.15ZM97.787 118.17C97.107 118.17 96.517 118.65 96.017 119.61C95.537 120.57 95.227 121.8 95.087 123.3H100.187C100.147 121.84 99.907 120.62 99.467 119.64C99.047 118.66 98.487 118.17 97.787 118.17Z" fill="black"/>
<defs>
<clipPath id="clip0">
<rect width="124.987" height="79.4037" fill="white" transform="translate(10.2931 32.3497)"/>
</clipPath>
</defs>
</svg>
