<svg width="76" height="76" viewBox="0 0 76 76" fill="none" xmlns="http://www.w3.org/2000/svg">
<circle cx="38" cy="38" r="38" fill="#73CFD9"/>
<g clip-path="url(#clip0)">
<path d="M22.2119 16.9402C21.957 17.0223 21.8296 17.2275 21.85 17.5199L21.8653 17.7713L21.4829 17.7252C21.2739 17.7046 20.8814 17.6841 20.6163 17.6841C20.2034 17.6841 20.1014 17.6995 19.9281 17.8021C19.7548 17.9047 19.4948 18.192 19.4948 18.2844C19.4948 18.2998 19.6069 18.3254 19.7395 18.346C20.081 18.3921 20.4685 18.5973 20.7438 18.8744C20.9732 19.1104 21.432 19.9313 21.3708 19.9928C21.3555 20.0134 21.2535 20.0031 21.1414 19.9723C20.6163 19.8235 19.7089 19.9723 18.9442 20.3315C17.6035 20.9574 16.9408 21.9219 17.2976 22.712C17.3486 22.83 17.5372 23.0506 17.7105 23.2148C17.9093 23.3944 18.0164 23.5278 17.9858 23.5534C17.9603 23.5791 17.7207 23.6868 17.4556 23.7894C15.7377 24.4615 14.142 25.5184 13.2193 26.5958C11.2414 28.9097 11.6288 31.3467 14.0707 31.9726C14.2899 32.029 14.5295 32.0752 14.611 32.0752C14.6875 32.0752 14.7538 32.0957 14.7538 32.1214C14.7538 32.224 14.3205 32.8089 14.1216 32.973C13.617 33.3886 13.0664 33.5374 12.2049 33.4964C11.5115 33.4656 11.0986 33.3527 10.4461 33.0295C10.0179 32.814 9.92101 32.7319 8.91673 31.7417C8.32538 31.162 7.71874 30.5976 7.5658 30.495C7.14268 30.2128 6.77054 30.0743 6.41879 30.0743C6.00076 30.0743 5.76626 30.218 5.55725 30.5874C5.41451 30.8439 5.39922 30.9106 5.39922 31.3056C5.39922 31.7109 5.41451 31.7725 5.61333 32.1881C5.73058 32.4292 6.00076 32.891 6.21997 33.209C6.6176 33.7837 6.6176 33.7939 6.65839 34.2044C6.70936 34.7379 6.92347 35.1843 7.41797 35.7692C7.95834 36.4105 7.95834 36.4156 7.83089 36.5541C7.38228 37.0364 7.40777 38.0523 7.89207 38.8629C8.50891 39.889 9.55906 40.5559 10.7265 40.6688C11.0833 40.6996 11.7613 40.6432 11.9703 40.5611C12.0468 40.5303 12.057 40.5457 12.0264 40.638C11.9602 40.8484 11.9958 41.736 12.0774 42.0489C12.1998 42.5158 12.4444 42.9211 12.786 43.2495C13.3468 43.7728 13.9177 43.9934 14.7283 43.9934C15.4216 43.9934 16.0894 43.783 16.7521 43.3572L16.9917 43.1982L17.1345 43.3008C17.4098 43.4957 17.7105 43.6189 17.9043 43.6189C18.358 43.6189 19.6018 43.8856 20.9986 44.2858C23.0021 44.8604 24.0421 45.0862 24.9495 45.1375C25.4185 45.1683 25.4746 45.158 26.6318 44.8604C28.5894 44.3577 29.9556 43.8754 31.2096 43.2392C31.8265 42.9262 32.7033 42.3568 33.0857 42.0181C33.3304 41.7975 33.3456 41.7873 33.9982 41.6847C34.3652 41.6231 34.8801 41.5 35.1452 41.4127C35.7518 41.2178 36.8224 40.6945 37.373 40.3302C38.1784 39.7915 42.1089 36.5028 43.7096 35.0201C44.8566 33.9581 47.1302 31.5827 47.7216 30.8285C47.849 30.6592 47.8287 30.6643 48.6392 30.7361C49.0623 30.7721 49.4243 30.7772 49.7862 30.7413C50.8568 30.6387 51.4328 30.3975 52.065 29.787C52.2944 29.5613 52.6155 29.2893 52.7736 29.1816C53.6096 28.6018 55.2919 28.0221 56.9895 27.7143C57.1883 27.6835 57.8561 27.4834 58.4781 27.273C59.1 27.0627 59.7168 26.878 59.8443 26.8626C60.0533 26.8318 60.0737 26.837 60.0737 26.9344C60.0737 26.9909 60.0533 27.0576 60.0227 27.073C59.9972 27.0883 59.9768 27.155 59.9768 27.2166C59.9819 27.2782 59.9361 27.5963 59.8749 27.9195C59.8188 28.2427 59.7321 28.9815 59.6863 29.5613C59.6455 30.141 59.5639 30.8336 59.5129 31.1055C59.4263 31.5724 59.2325 32.1265 59.1612 32.1265C59.1408 32.1265 59.0643 31.9469 58.9828 31.7263C58.3863 30.0948 57.7338 29.0995 57.1679 28.9456C56.6021 28.7917 55.7507 29.2996 55.2052 30.1307C54.8484 30.6592 54.4406 31.516 54.3335 31.9264C54.2112 32.4036 54.2163 33.1526 54.3335 33.6144C54.5935 34.5994 55.297 35.4716 56.1331 35.8564C56.5511 36.0514 57.1526 36.0821 57.4993 35.9282C57.7491 35.8153 57.9326 35.7897 57.9326 35.8615C57.9326 36.118 57.0354 37.8419 56.5154 38.591C56.2095 39.0271 55.4754 40.3661 55.3327 40.7406C55.2307 41.0228 55.1849 41.0741 54.7311 41.423C53.7626 42.1567 52.7889 43.2495 52.2536 44.2037C51.9936 44.6604 51.9732 44.8143 52.172 44.8399C52.325 44.8604 52.7328 45.0041 52.8195 45.0657C52.8602 45.0964 52.8144 45.1785 52.6614 45.3324C51.9579 46.0405 51.1932 47.9747 50.9995 49.5395C50.9129 50.2167 50.9587 51.2685 51.0964 51.7969C51.3309 52.6845 51.7693 53.3463 52.4779 53.8542C52.8857 54.1518 52.9061 54.1775 52.9163 54.3724C52.9316 54.6546 53.2018 55.2908 53.5077 55.7628C54.3692 57.0916 55.7966 57.9125 57.8561 58.2511C58.473 58.3486 60.2164 58.3332 60.9352 58.2254C63.3771 57.8406 65.2327 56.794 65.3704 55.7217C65.401 55.4652 65.401 55.4601 65.666 55.3677C66.1147 55.2087 66.4511 54.9983 66.864 54.6033C67.9295 53.5977 68.5871 51.9508 68.5922 50.2834C68.5922 49.6113 68.5055 49.1444 68.3067 48.7494C68.1844 48.5082 68.1844 48.4877 68.2659 48.4621C68.6432 48.3492 69.26 47.8156 69.6933 47.241C70.2847 46.4458 70.667 45.0092 70.611 43.7984C70.5753 43.034 70.458 42.5568 70.1623 41.9771C69.7749 41.2229 69.4843 40.8689 68.5718 40.0378C68.0111 39.5247 67.853 39.1707 67.8989 38.4935C67.9142 38.2575 67.9091 38.0728 67.8938 38.0882C67.8377 38.1446 67.7205 38.8218 67.7205 39.0835C67.7205 39.2323 67.7562 39.4683 67.8071 39.6119C67.853 39.7556 67.8734 39.889 67.8581 39.9044C67.8428 39.9198 67.593 39.8736 67.3025 39.7915C66.8436 39.6632 66.6856 39.6478 66.0382 39.6427C65.3908 39.6427 65.2531 39.6581 64.9268 39.7658C64.7229 39.8325 64.412 39.9762 64.2386 40.0788C64.0551 40.1917 63.8869 40.2584 63.8308 40.243C63.6728 40.2019 63.5453 39.8325 63.1834 38.3498C62.9744 37.5135 62.7909 36.8825 62.7246 36.7696C62.6634 36.6721 62.6226 36.5593 62.6379 36.5234C62.6481 36.4926 62.7858 36.4207 62.9336 36.3643C64.0806 35.9693 65.1766 34.6199 65.9311 32.6652C66.2217 31.9264 66.2064 31.5724 65.8751 31.2748C65.8139 31.2133 65.5641 31.0645 65.3296 30.9414C65.0951 30.8182 64.8606 30.6592 64.8096 30.5925C64.6873 30.4386 64.361 30.3616 64.1112 30.4334C63.7136 30.5412 63.3516 30.8182 62.536 31.6289C62.0772 32.0803 61.6999 32.4446 61.6897 32.4292C61.6795 32.4189 61.6438 32.2702 61.6132 32.106C61.5215 31.6494 61.5419 30.6079 61.654 29.6946C61.7611 28.8225 61.7815 27.8374 61.705 27.4577C61.5623 26.7856 61.5572 26.7549 61.6897 26.6933C61.756 26.6625 62.434 26.524 63.1987 26.3803C65.0747 26.0366 66.655 25.7185 67.9244 25.4363C68.2201 25.3696 68.6279 25.2875 68.8318 25.2516C69.1785 25.1952 69.3518 25.108 69.3518 24.9848C69.3518 24.9541 69.2906 24.9438 69.1887 24.9694C68.9389 25.0208 68.7248 25.0208 67.4401 24.9489C65.1512 24.8155 61.3584 25.0054 57.1679 25.4568C56.9028 25.4876 56.2503 25.5543 55.715 25.6108C55.1849 25.6672 54.5425 25.7339 54.2876 25.7647C53.5331 25.8468 52.8908 25.9135 52.3046 25.9648L51.7489 26.0212L51.5297 25.8775C51.4073 25.8006 51.3105 25.7134 51.3054 25.6826C51.3054 25.6518 51.3513 25.4928 51.4073 25.3286C51.5552 24.9027 51.5042 24.8617 51.3105 25.2414C51.2187 25.4209 51.127 25.5595 51.1066 25.5492C51.0403 25.5235 50.4031 24.7694 50.0513 24.3025C49.8831 24.0767 49.4039 23.3944 48.9859 22.789C48.0071 21.3576 47.8083 21.101 47.6553 21.0651C47.4514 21.0138 47.2169 21.0856 47.0436 21.255C46.9314 21.3627 46.8142 21.4191 46.6103 21.4499C46.4573 21.4756 46.3248 21.4858 46.3095 21.4704C46.2636 21.4243 46.5899 21.1934 47.013 20.983C47.2424 20.865 47.4259 20.7624 47.4157 20.7522C47.38 20.7214 46.8397 20.9061 46.5542 21.0497C46.3248 21.1626 46.2585 21.178 46.2585 21.1164C46.2585 21.0754 46.3095 21.0241 46.3758 20.9984C46.442 20.9728 46.5593 20.8958 46.6459 20.8291C46.7275 20.7676 46.8652 20.6598 46.9518 20.5982C47.1353 20.47 47.9867 20.0595 48.2569 19.9723C48.4608 19.9056 48.5576 19.8133 48.4251 19.8133C48.2314 19.8133 47.3189 19.9826 46.7938 20.1211C45.3562 20.4956 44.2653 21.0959 43.3527 22.0194C41.7214 23.6612 41.1963 26.1033 42.0426 28.1658C42.2873 28.7558 42.9296 29.5818 43.3221 29.8024C43.47 29.8845 43.4037 29.9871 42.7716 30.6694C41.91 31.5878 40.7732 32.4856 39.4019 33.3219C38.0968 34.1223 37.1741 34.5225 36.3687 34.6405C35.4969 34.7687 35.0942 34.5789 33.9727 33.4861C33.0398 32.578 32.6982 32.3625 31.9284 32.2086C31.7959 32.1778 31.7959 32.1778 31.7602 31.5006C31.4849 26.3342 28.8952 20.8548 25.5357 18.3254C24.9852 17.915 24.3836 17.5405 23.9299 17.3352C23.7464 17.2532 23.4813 17.1352 23.3335 17.0633C23.0378 16.9248 22.4668 16.8632 22.2119 16.9402Z" fill="white"/>
</g>
<defs>
<clipPath id="clip0">
<rect width="65.2525" height="41.4545" fill="white" transform="translate(5.37373 16.8889)"/>
</clipPath>
</defs>
</svg>
