<svg width="147" height="146" viewBox="0 0 147 146" fill="none" xmlns="http://www.w3.org/2000/svg">
<circle cx="73.5" cy="72.7868" r="72.7868" fill="#FFCE7C"/>
<g clip-path="url(#clip0)">
<path d="M72.9127 8.07481C66.5828 8.53871 61.3228 10.6412 57.7314 14.1354C54.7609 17.0235 53.2346 20.4055 53.0774 24.4234C52.9951 26.3389 53.3019 27.8952 54.0576 29.4365C55.3371 32.0553 57.5967 33.649 60.3501 33.8735C62.7145 34.068 64.832 33.3871 66.3134 31.9505C67.3011 31.0078 67.9296 29.8256 68.3261 28.202C68.4608 27.6408 68.4608 25.0968 68.3261 24.5357C67.9745 23.1141 67.2487 21.8945 65.7298 20.196C65.0415 19.4253 64.5252 18.6846 64.3456 18.2057C63.9191 17.0609 64.1511 15.6693 64.9442 14.6442C66.1189 13.1253 68.4084 12.2649 71.2591 12.2649C76.6463 12.2649 80.0732 16.2828 80.9935 23.6752C81.2628 25.875 81.2628 29.4964 80.9935 31.6587C80.5146 35.5794 79.4671 38.6097 76.8034 43.8398C74.5513 48.2468 73.8031 49.8854 73.2045 51.6886C72.5162 53.7612 72.2917 55.6691 72.4264 58.3627C72.4638 59.1633 72.5162 60.2931 72.5461 60.8768L72.5985 61.9467H74.3717H76.145L76.1899 60.0911C76.3021 55.325 76.983 53.215 79.0855 51.0975C80.1555 50.0126 81.7118 48.8903 84.8094 46.9449C91.6705 42.6426 95.1797 39.4028 97.0652 35.6393C98.3222 33.1178 98.831 30.5589 98.7412 27.0871C98.6664 24.0119 98.1426 21.7298 96.938 19.2607C93.8853 13.0131 87.5553 9.13729 78.8087 8.17957C77.5666 8.04488 74.1548 7.98503 72.9127 8.07481Z" fill="white"/>
<path d="M71.6034 65.987C64.8469 66.9297 59.3176 72.3543 58.3299 79.021C58.1803 80.0161 58.1803 81.7894 58.3225 82.8219C58.6966 85.4332 59.9237 88.1642 61.6745 90.2592C61.9064 90.536 62.101 90.7904 62.101 90.8204C62.101 90.8503 61.9663 91.0074 61.7942 91.1646C60.9338 92.01 59.5196 93.9853 58.6666 95.5716C57.7164 97.3224 56.4744 100.255 56.3547 101.034C56.2873 101.468 56.3846 102.096 56.5791 102.463C56.7811 102.837 57.245 103.256 57.679 103.465L58.098 103.66L71.1544 103.72C78.3373 103.75 85.3033 103.765 86.6426 103.757C89.0144 103.735 89.0818 103.727 89.4634 103.555C90.234 103.211 90.8326 102.291 90.8326 101.46C90.8326 100.622 89.2015 96.5742 88.0567 94.5465C87.2262 93.0875 86.261 91.7407 85.3107 90.7381C84.8768 90.2742 84.8394 90.2143 84.9291 90.0871C86.1263 88.4485 86.7024 87.4534 87.2411 86.0991C88.7301 82.3431 88.573 78.4523 86.7922 74.7561C85.9991 73.1175 85.0489 71.7857 83.6946 70.4389C81.4574 68.2092 78.8686 66.7876 75.9056 66.1666C75.1724 66.0094 74.7459 65.972 73.5487 65.9496C72.7481 65.9346 71.8727 65.9496 71.6034 65.987Z" fill="white"/>
</g>
<path d="M51.2934 132C51.0934 132 50.9934 131.9 50.9934 131.7V111.6C50.9934 111.4 51.0934 111.3 51.2934 111.3C51.4334 111.3 51.5334 111.36 51.5934 111.48L59.4234 130.17V111.6C59.4234 111.4 59.5234 111.3 59.7234 111.3C59.9434 111.3 60.0534 111.4 60.0534 111.6V131.7C60.0534 131.9 59.9434 132 59.7234 132C59.5834 132 59.4934 131.94 59.4534 131.82L51.6234 113.13V131.7C51.6234 131.9 51.5134 132 51.2934 132ZM66.5296 132.15C65.8496 132.15 65.2396 131.84 64.6996 131.22C64.1796 130.58 63.7696 129.71 63.4696 128.61C63.1896 127.51 63.0496 126.25 63.0496 124.83C63.0496 123.41 63.1896 122.15 63.4696 121.05C63.7696 119.95 64.1696 119.09 64.6696 118.47C65.1896 117.85 65.7896 117.54 66.4696 117.54C67.0896 117.54 67.6196 117.8 68.0596 118.32C68.5196 118.82 68.8696 119.52 69.1096 120.42C69.3696 121.3 69.4996 122.31 69.4996 123.45C69.4996 123.77 69.3396 123.93 69.0196 123.93H63.7396C63.7196 124.23 63.7096 124.53 63.7096 124.83C63.7096 126.11 63.8296 127.26 64.0696 128.28C64.3096 129.28 64.6396 130.07 65.0596 130.65C65.4996 131.23 65.9896 131.52 66.5296 131.52C67.0496 131.52 67.4896 131.3 67.8496 130.86C68.2296 130.42 68.5296 129.84 68.7496 129.12C68.8096 128.94 68.9196 128.85 69.0796 128.85C69.2196 128.85 69.3096 128.91 69.3496 129.03C69.3896 129.13 69.3896 129.24 69.3496 129.36C69.0696 130.22 68.6996 130.9 68.2396 131.4C67.7796 131.9 67.2096 132.15 66.5296 132.15ZM66.4696 118.17C65.7896 118.17 65.1996 118.65 64.6996 119.61C64.2196 120.57 63.9096 121.8 63.7696 123.3H68.8696C68.8296 121.84 68.5896 120.62 68.1496 119.64C67.7296 118.66 67.1696 118.17 66.4696 118.17ZM74.3943 132.15C72.7343 132.15 71.9043 131.04 71.9043 128.82V117.99C71.9043 117.79 72.0143 117.69 72.2343 117.69C72.4343 117.69 72.5343 117.79 72.5343 117.99V128.82C72.5343 129.8 72.6943 130.5 73.0143 130.92C73.3343 131.32 73.7943 131.52 74.3943 131.52C75.0143 131.52 75.5543 131.34 76.0143 130.98C76.4943 130.6 76.8843 130.13 77.1843 129.57V117.99C77.1843 117.79 77.2943 117.69 77.5143 117.69C77.7143 117.69 77.8143 117.79 77.8143 117.99V131.7C77.8143 131.9 77.7143 132 77.5143 132C77.2943 132 77.1843 131.9 77.1843 131.7V130.5C76.7843 131.1 76.3543 131.53 75.8943 131.79C75.4343 132.03 74.9343 132.15 74.3943 132.15ZM84.6435 132C83.7435 132 83.0935 131.8 82.6935 131.4C82.2935 131 82.0935 130.3 82.0935 129.3V118.62H80.0535C79.8535 118.62 79.7535 118.51 79.7535 118.29C79.7535 118.09 79.8535 117.99 80.0535 117.99H82.0935V114.21C82.0935 114.01 82.2035 113.91 82.4235 113.91C82.6235 113.91 82.7235 114.01 82.7235 114.21V117.99H84.7635C84.9635 117.99 85.0635 118.09 85.0635 118.29C85.0635 118.51 84.9635 118.62 84.7635 118.62H82.7235V129.27C82.7235 130.07 82.8635 130.62 83.1435 130.92C83.4235 131.22 83.9235 131.37 84.6435 131.37C84.8635 131.37 84.9735 131.47 84.9735 131.67C84.9735 131.89 84.8635 132 84.6435 132ZM87.9145 132C87.7145 132 87.6145 131.9 87.6145 131.7V117.99C87.6145 117.79 87.7145 117.69 87.9145 117.69C88.1345 117.69 88.2445 117.79 88.2445 117.99V119.19C88.6445 118.59 89.0745 118.17 89.5345 117.93C89.9945 117.67 90.4945 117.54 91.0345 117.54C92.6945 117.54 93.5245 118.72 93.5245 121.08C93.5245 121.32 93.4245 121.44 93.2245 121.44C93.0045 121.44 92.8945 121.32 92.8945 121.08C92.8945 120 92.7345 119.25 92.4145 118.83C92.0945 118.39 91.6345 118.17 91.0345 118.17C90.4145 118.17 89.8645 118.36 89.3845 118.74C88.9245 119.1 88.5445 119.56 88.2445 120.12V131.7C88.2445 131.9 88.1345 132 87.9145 132ZM98.1688 132.15C97.4888 132.15 96.8888 131.84 96.3688 131.22C95.8688 130.6 95.4688 129.74 95.1688 128.64C94.8888 127.54 94.7488 126.27 94.7488 124.83C94.7488 123.39 94.8888 122.13 95.1688 121.05C95.4688 119.95 95.8688 119.09 96.3688 118.47C96.8888 117.85 97.4888 117.54 98.1688 117.54C98.8488 117.54 99.4388 117.86 99.9388 118.5C100.459 119.12 100.869 119.98 101.169 121.08C101.469 122.16 101.619 123.41 101.619 124.83C101.619 126.25 101.469 127.51 101.169 128.61C100.869 129.71 100.459 130.58 99.9388 131.22C99.4388 131.84 98.8488 132.15 98.1688 132.15ZM98.1688 131.52C98.7088 131.52 99.1888 131.23 99.6088 130.65C100.029 130.07 100.359 129.28 100.599 128.28C100.839 127.26 100.959 126.11 100.959 124.83C100.959 123.55 100.839 122.41 100.599 121.41C100.359 120.41 100.029 119.62 99.6088 119.04C99.1888 118.46 98.7088 118.17 98.1688 118.17C97.6488 118.17 97.1788 118.46 96.7588 119.04C96.3388 119.62 96.0088 120.41 95.7688 121.41C95.5288 122.41 95.4088 123.55 95.4088 124.83C95.4088 126.11 95.5288 127.26 95.7688 128.28C96.0088 129.28 96.3388 130.07 96.7588 130.65C97.1788 131.23 97.6488 131.52 98.1688 131.52Z" fill="black"/>
<defs>
<clipPath id="clip0">
<rect width="47.886" height="95.7721" fill="white" transform="translate(52 8)"/>
</clipPath>
</defs>
</svg>
