<svg width="76" height="76" viewBox="0 0 76 76" fill="none" xmlns="http://www.w3.org/2000/svg">
<circle cx="38" cy="38" r="38" fill="#FFCE7C"/>
<path d="M37.918 13.0391C34.6133 13.2813 31.8672 14.3789 29.9922 16.2031C28.4414 17.7109 27.6445 19.4766 27.5625 21.5742C27.5195 22.5742 27.6797 23.3867 28.0742 24.1914C28.7422 25.5586 29.9219 26.3907 31.3594 26.5078C32.5937 26.6094 33.6992 26.2539 34.4727 25.5039C34.9883 25.0117 35.3164 24.3946 35.5234 23.5469C35.5937 23.2539 35.5937 21.9258 35.5234 21.6328C35.3398 20.8906 34.9609 20.2539 34.168 19.3672C33.8086 18.9649 33.5391 18.5781 33.4453 18.3281C33.2227 17.7305 33.3437 17.0039 33.7578 16.4688C34.3711 15.6758 35.5664 15.2266 37.0547 15.2266C39.8672 15.2266 41.6562 17.3242 42.1367 21.1836C42.2773 22.3321 42.2773 24.2227 42.1367 25.3516C41.8867 27.3985 41.3398 28.9805 39.9492 31.711C38.7734 34.0118 38.3828 34.8672 38.0703 35.8086C37.7109 36.8907 37.5937 37.8868 37.6641 39.293C37.6836 39.711 37.7109 40.3008 37.7266 40.6055L37.7539 41.1641H38.6797H39.6055L39.6289 40.1954C39.6875 37.7071 40.043 36.6055 41.1406 35.5C41.6992 34.9336 42.5117 34.3477 44.1289 33.3321C47.7109 31.086 49.5429 29.3946 50.5273 27.4297C51.1836 26.1133 51.4492 24.7774 51.4023 22.9649C51.3633 21.3594 51.0898 20.168 50.4609 18.8789C48.8672 15.6172 45.5625 13.5938 40.9961 13.0938C40.3476 13.0234 38.5664 12.9922 37.918 13.0391Z" fill="white"/>
<path d="M37.2344 43.2734C33.707 43.7656 30.8203 46.5977 30.3047 50.0781C30.2266 50.5977 30.2266 51.5234 30.3008 52.0625C30.4961 53.4258 31.1367 54.8516 32.0508 55.9453C32.1719 56.0898 32.2735 56.2227 32.2735 56.2383C32.2735 56.2539 32.2031 56.3359 32.1133 56.418C31.6641 56.8594 30.9258 57.8906 30.4805 58.7187C29.9844 59.6328 29.336 61.1641 29.2735 61.5703C29.2383 61.7969 29.2891 62.125 29.3906 62.3164C29.4961 62.5117 29.7383 62.7305 29.9649 62.8398L30.1836 62.9414L37 62.9727C40.75 62.9883 44.3867 62.9961 45.086 62.9922C46.3242 62.9805 46.3594 62.9766 46.5586 62.8867C46.961 62.707 47.2735 62.2266 47.2735 61.793C47.2735 61.3555 46.4219 59.2422 45.8242 58.1836C45.3906 57.4219 44.8867 56.7187 44.3906 56.1953C44.1641 55.9531 44.1445 55.9219 44.1914 55.8555C44.8164 55 45.1172 54.4805 45.3985 53.7734C46.1758 51.8125 46.0938 49.7812 45.1641 47.8516C44.75 46.9961 44.2539 46.3008 43.5469 45.5977C42.3789 44.4336 41.0274 43.6914 39.4805 43.3672C39.0977 43.2852 38.875 43.2656 38.25 43.2539C37.832 43.2461 37.375 43.2539 37.2344 43.2734Z" fill="white"/>
</svg>
