<svg width="76" height="76" viewBox="0 0 76 76" fill="none" xmlns="http://www.w3.org/2000/svg">
<circle cx="38" cy="38" r="38" fill="#FA909A"/>
<g clip-path="url(#clip0)">
<path d="M53.7881 16.9402C54.043 17.0223 54.1704 17.2275 54.15 17.5199L54.1347 17.7713L54.5171 17.7252C54.7261 17.7046 55.1186 17.6841 55.3837 17.6841C55.7966 17.6841 55.8986 17.6995 56.0719 17.8021C56.2452 17.9047 56.5052 18.192 56.5052 18.2844C56.5052 18.2998 56.3931 18.3254 56.2605 18.346C55.919 18.3921 55.5315 18.5973 55.2562 18.8744C55.0268 19.1104 54.568 19.9313 54.6292 19.9928C54.6445 20.0134 54.7465 20.0031 54.8586 19.9723C55.3837 19.8235 56.2911 19.9723 57.0558 20.3315C58.3965 20.9574 59.0592 21.9219 58.7024 22.712C58.6514 22.83 58.4628 23.0506 58.2895 23.2148C58.0907 23.3944 57.9836 23.5278 58.0142 23.5534C58.0397 23.5791 58.2793 23.6868 58.5444 23.7894C60.2623 24.4615 61.858 25.5184 62.7807 26.5958C64.7586 28.9097 64.3712 31.3467 61.9293 31.9726C61.7101 32.029 61.4705 32.0752 61.389 32.0752C61.3125 32.0752 61.2462 32.0957 61.2462 32.1214C61.2462 32.224 61.6795 32.8089 61.8784 32.973C62.383 33.3886 62.9336 33.5374 63.7951 33.4964C64.4885 33.4656 64.9014 33.3527 65.5539 33.0295C65.9821 32.814 66.079 32.7319 67.0833 31.7417C67.6746 31.162 68.2813 30.5976 68.4342 30.495C68.8573 30.2128 69.2295 30.0743 69.5812 30.0743C69.9992 30.0743 70.2337 30.218 70.4428 30.5874C70.5855 30.8439 70.6008 30.9106 70.6008 31.3056C70.6008 31.7109 70.5855 31.7725 70.3867 32.1881C70.2694 32.4292 69.9992 32.891 69.78 33.209C69.3824 33.7837 69.3824 33.7939 69.3416 34.2044C69.2906 34.7379 69.0765 35.1843 68.582 35.7692C68.0417 36.4105 68.0417 36.4156 68.1691 36.5541C68.6177 37.0364 68.5922 38.0523 68.1079 38.8629C67.4911 39.889 66.4409 40.5559 65.2735 40.6688C64.9167 40.6996 64.2387 40.6432 64.0297 40.5611C63.9532 40.5303 63.943 40.5457 63.9736 40.638C64.0398 40.8484 64.0042 41.736 63.9226 42.0489C63.8002 42.5158 63.5556 42.9211 63.214 43.2495C62.6532 43.7728 62.0823 43.9934 61.2717 43.9934C60.5784 43.9934 59.9106 43.783 59.2479 43.3572L59.0083 43.1982L58.8655 43.3008C58.5902 43.4957 58.2895 43.6189 58.0957 43.6189C57.642 43.6189 56.3982 43.8856 55.0014 44.2858C52.9979 44.8604 51.9579 45.0862 51.0505 45.1375C50.5815 45.1683 50.5254 45.158 49.3682 44.8604C47.4106 44.3577 46.0444 43.8754 44.7904 43.2392C44.1735 42.9262 43.2967 42.3568 42.9143 42.0181C42.6696 41.7975 42.6544 41.7873 42.0018 41.6847C41.6348 41.6231 41.1199 41.5 40.8548 41.4127C40.2482 41.2178 39.1776 40.6945 38.627 40.3302C37.8216 39.7915 33.8911 36.5028 32.2904 35.0201C31.1434 33.9581 28.8698 31.5827 28.2784 30.8285C28.151 30.6592 28.1713 30.6643 27.3608 30.7361C26.9377 30.7721 26.5757 30.7772 26.2138 30.7413C25.1432 30.6387 24.5672 30.3975 23.935 29.787C23.7056 29.5613 23.3845 29.2893 23.2264 29.1816C22.3904 28.6018 20.7081 28.0221 19.0105 27.7143C18.8117 27.6835 18.1439 27.4834 17.5219 27.273C16.9 27.0627 16.2832 26.878 16.1557 26.8626C15.9467 26.8318 15.9263 26.837 15.9263 26.9344C15.9263 26.9909 15.9467 27.0576 15.9773 27.073C16.0028 27.0883 16.0232 27.155 16.0232 27.2166C16.0181 27.2782 16.0639 27.5963 16.1251 27.9195C16.1812 28.2427 16.2679 28.9815 16.3137 29.5613C16.3545 30.141 16.4361 30.8336 16.4871 31.1055C16.5737 31.5724 16.7675 32.1265 16.8388 32.1265C16.8592 32.1265 16.9357 31.9469 17.0172 31.7263C17.6137 30.0948 18.2662 29.0995 18.8321 28.9456C19.3979 28.7917 20.2493 29.2996 20.7948 30.1307C21.1516 30.6592 21.5594 31.516 21.6665 31.9264C21.7888 32.4036 21.7837 33.1526 21.6665 33.6144C21.4065 34.5994 20.703 35.4716 19.8669 35.8564C19.4489 36.0514 18.8474 36.0821 18.5007 35.9282C18.2509 35.8153 18.0674 35.7897 18.0674 35.8615C18.0674 36.118 18.9646 37.8419 19.4846 38.591C19.7905 39.0271 20.5246 40.3661 20.6673 40.7406C20.7693 41.0228 20.8151 41.0741 21.2689 41.423C22.2374 42.1567 23.2111 43.2495 23.7464 44.2037C24.0064 44.6604 24.0268 44.8143 23.828 44.8399C23.675 44.8604 23.2672 45.0041 23.1805 45.0657C23.1398 45.0964 23.1856 45.1785 23.3386 45.3324C24.0421 46.0405 24.8068 47.9747 25.0005 49.5395C25.0871 50.2167 25.0413 51.2685 24.9036 51.7969C24.6691 52.6845 24.2307 53.3463 23.5221 53.8542C23.1143 54.1518 23.0939 54.1775 23.0837 54.3724C23.0684 54.6546 22.7982 55.2908 22.4923 55.7628C21.6308 57.0916 20.2034 57.9125 18.1439 58.2511C17.527 58.3486 15.7836 58.3332 15.0648 58.2254C12.6229 57.8406 10.7673 56.794 10.6296 55.7217C10.599 55.4652 10.599 55.4601 10.334 55.3677C9.88535 55.2087 9.54889 54.9983 9.13596 54.6033C8.07051 53.5977 7.41289 51.9508 7.40779 50.2834C7.40779 49.6113 7.49446 49.1444 7.69327 48.7494C7.81562 48.5082 7.81562 48.4877 7.73405 48.4621C7.35682 48.3492 6.73997 47.8156 6.30666 47.241C5.7153 46.4458 5.33297 45.0092 5.38905 43.7984C5.42473 43.034 5.54198 42.5568 5.83765 41.9771C6.22509 41.2229 6.51567 40.8689 7.42818 40.0378C7.98895 39.5247 8.14698 39.1707 8.1011 38.4935C8.08581 38.2575 8.0909 38.0728 8.1062 38.0882C8.16227 38.1446 8.27953 38.8218 8.27953 39.0835C8.27953 39.2323 8.24384 39.4683 8.19286 39.6119C8.14698 39.7556 8.12659 39.889 8.14188 39.9044C8.15718 39.9198 8.40697 39.8736 8.69755 39.7915C9.15636 39.6632 9.31439 39.6478 9.96182 39.6427C10.6092 39.6427 10.7469 39.6581 11.0732 39.7658C11.2771 39.8325 11.588 39.9762 11.7614 40.0788C11.9449 40.1917 12.1131 40.2584 12.1692 40.243C12.3272 40.2019 12.4547 39.8325 12.8166 38.3498C13.0256 37.5135 13.2091 36.8825 13.2754 36.7696C13.3366 36.6721 13.3774 36.5593 13.3621 36.5234C13.3519 36.4926 13.2142 36.4207 13.0664 36.3643C11.9194 35.9693 10.8234 34.6199 10.0689 32.6652C9.77829 31.9264 9.79359 31.5724 10.1249 31.2748C10.1861 31.2133 10.4359 31.0645 10.6704 30.9414C10.9049 30.8182 11.1394 30.6592 11.1904 30.5925C11.3127 30.4386 11.639 30.3616 11.8888 30.4334C12.2864 30.5412 12.6484 30.8182 13.464 31.6289C13.9228 32.0803 14.3001 32.4446 14.3103 32.4292C14.3205 32.4189 14.3562 32.2702 14.3868 32.106C14.4785 31.6494 14.4581 30.6079 14.346 29.6946C14.2389 28.8225 14.2185 27.8374 14.295 27.4577C14.4377 26.7856 14.4428 26.7549 14.3103 26.6933C14.244 26.6625 13.566 26.524 12.8013 26.3803C10.9253 26.0366 9.34498 25.7185 8.07561 25.4363C7.77993 25.3696 7.37211 25.2875 7.16819 25.2516C6.82154 25.1952 6.64821 25.108 6.64821 24.9848C6.64821 24.9541 6.70938 24.9438 6.81134 24.9694C7.06114 25.0208 7.27525 25.0208 8.55991 24.9489C10.8488 24.8155 14.6416 25.0054 18.8321 25.4568C19.0972 25.4876 19.7497 25.5543 20.285 25.6108C20.8151 25.6672 21.4575 25.7339 21.7124 25.7647C22.4669 25.8468 23.1092 25.9135 23.6954 25.9648L24.2511 26.0212L24.4703 25.8775C24.5927 25.8006 24.6895 25.7134 24.6946 25.6826C24.6946 25.6518 24.6487 25.4928 24.5927 25.3286C24.4448 24.9027 24.4958 24.8617 24.6895 25.2414C24.7813 25.4209 24.873 25.5595 24.8934 25.5492C24.9597 25.5235 25.5969 24.7694 25.9487 24.3025C26.1169 24.0767 26.5961 23.3944 27.0141 22.789C27.9929 21.3576 28.1917 21.101 28.3447 21.0651C28.5486 21.0138 28.7831 21.0856 28.9564 21.255C29.0686 21.3627 29.1858 21.4191 29.3897 21.4499C29.5427 21.4756 29.6752 21.4858 29.6905 21.4704C29.7364 21.4243 29.4101 21.1934 28.987 20.983C28.7576 20.865 28.5741 20.7624 28.5843 20.7522C28.62 20.7214 29.1603 20.9061 29.4458 21.0497C29.6752 21.1626 29.7415 21.178 29.7415 21.1164C29.7415 21.0754 29.6905 21.0241 29.6242 20.9984C29.558 20.9728 29.4407 20.8958 29.3541 20.8291C29.2725 20.7676 29.1348 20.6598 29.0482 20.5982C28.8647 20.47 28.0133 20.0595 27.7431 19.9723C27.5392 19.9056 27.4424 19.8133 27.5749 19.8133C27.7686 19.8133 28.6811 19.9826 29.2062 20.1211C30.6438 20.4956 31.7347 21.0959 32.6473 22.0194C34.2786 23.6612 34.8037 26.1033 33.9574 28.1658C33.7127 28.7558 33.0704 29.5818 32.6779 29.8024C32.53 29.8845 32.5963 29.9871 33.2284 30.6694C34.09 31.5878 35.2268 32.4856 36.5981 33.3219C37.9032 34.1223 38.8259 34.5225 39.6313 34.6405C40.5031 34.7687 40.9058 34.5789 42.0273 33.4861C42.9602 32.578 43.3018 32.3625 44.0716 32.2086C44.2041 32.1778 44.2041 32.1778 44.2398 31.5006C44.5151 26.3342 47.1048 20.8548 50.4643 18.3254C51.0148 17.915 51.6164 17.5405 52.0701 17.3352C52.2536 17.2532 52.5187 17.1352 52.6665 17.0633C52.9622 16.9248 53.5332 16.8632 53.7881 16.9402Z" fill="white"/>
</g>
<defs>
<clipPath id="clip0">
<rect width="65.2525" height="41.4545" fill="white" transform="matrix(-1 0 0 1 70.6263 16.8889)"/>
</clipPath>
</defs>
</svg>
