<svg width="174" height="138" viewBox="0 0 174 138" fill="none" xmlns="http://www.w3.org/2000/svg">
<path d="M44.2107 91.5026C44.2107 91.5026 33.3303 101.871 23.8716 107.501C16.8581 111.671 13.1997 111.633 12.4984 111.121C11.797 110.61 9.97732 108.335 9.57926 111.519C9.1812 114.704 13.1997 130.74 10.7924 134.474C8.38507 138.19 12.1951 139.914 13.3135 132.257C14.4129 124.599 13.2187 116.448 14.1096 115.746C15.0194 115.045 27.6058 109.207 33.7473 104.373C39.8888 99.5396 46.2199 92.7916 46.2199 92.7916L44.2107 91.5026Z" fill="#EDD3BE"/>
<path d="M10.6787 138C10.3185 138 10.0153 137.81 9.84466 137.488C9.54137 136.92 9.54137 135.782 10.5081 134.304C12.0056 132.01 10.8493 124.295 9.9963 118.647C9.50346 115.31 9.1054 112.657 9.23808 111.5C9.40868 110.193 9.84465 109.529 10.565 109.529C11.2094 109.529 11.835 110.079 12.3278 110.534C12.4794 110.666 12.5932 110.78 12.7069 110.856C12.8206 110.932 13.1429 111.027 13.6926 111.027C14.773 111.027 17.9386 110.647 23.701 107.217C33.027 101.663 43.8695 91.3699 43.9642 91.2562C44.078 91.1425 44.2675 91.1235 44.4002 91.2183L46.4095 92.5262C46.5042 92.5831 46.5611 92.6778 46.5611 92.7726C46.5801 92.8674 46.5422 92.9811 46.4663 93.0569C46.4095 93.1328 40.0405 99.8809 33.9369 104.677C29.4445 108.202 21.5211 112.278 17.2562 114.476C15.7398 115.254 14.5266 115.879 14.2992 116.05C14.0148 116.353 14.0527 118.571 14.0906 120.732C14.1475 123.878 14.2233 128.181 13.6168 132.332C13.086 136.237 11.7591 138 10.6787 138ZM10.565 110.23C10.1669 110.23 9.9963 111.083 9.93943 111.595C9.80675 112.676 10.2048 115.405 10.6787 118.552C11.5885 124.618 12.7259 132.162 11.0768 134.683C10.3375 135.82 10.2238 136.749 10.4512 137.147C10.527 137.28 10.6218 137.299 10.6787 137.299C11.1905 137.299 12.4036 136.067 12.9723 132.219C13.5599 128.143 13.4841 123.859 13.4272 120.732C13.3703 117.301 13.3703 115.898 13.9011 115.481C14.1665 115.273 15.0763 114.799 16.9529 113.832C21.1989 111.652 29.0843 107.596 33.5199 104.108C38.8273 99.9188 44.3623 94.2322 45.6702 92.8674L44.2296 91.9386C42.6942 93.3792 32.7237 102.629 24.0422 107.804C18.1281 111.33 14.8109 111.709 13.6736 111.709C13.2377 111.709 12.6311 111.652 12.2899 111.406C12.1762 111.311 12.0245 111.197 11.8539 111.046C11.4938 110.723 10.9441 110.23 10.565 110.23Z" fill="#EDD3BE"/>
<path d="M119.71 39.4323C119.71 39.4323 149.981 30.8266 172.235 36.4563C172.235 36.4563 131.879 37.6505 119.71 45.062V39.4323Z" fill="#30291D"/>
<path d="M79.7709 49.4786C79.7709 49.4786 78.1217 34.8451 69.8383 19.6808C61.5548 4.51656 53.84 -0.734066 51.6222 0.0810135C49.4234 0.915048 47.4899 5.04731 50.2385 7.81479C50.2385 7.81479 44.7225 10.2979 47.2056 16.0983C47.2056 16.0983 41.1399 19.1311 45.0068 26.8649C45.0068 26.8649 52.1909 57.2124 62.9385 60.5296C73.7052 63.8278 79.7709 49.4786 79.7709 49.4786Z" fill="#D5EAEC"/>
<path d="M61.7443 53.0612C61.7443 53.0612 62.3888 42.8443 56.5885 37.0629C50.7881 31.2626 32.8564 18.5814 29.8236 14.4302C26.7907 10.298 24.3076 18.5625 26.241 24.3628C26.241 24.3628 16.3274 28.2297 25.5586 37.6126C25.5586 37.6126 15.4744 42.2946 25.1416 49.4786C25.1416 49.4786 20.1753 55.4306 25.1416 61.0224C30.1079 66.5953 32.6289 69.8556 32.6289 69.8556C32.6289 69.8556 29.7288 82.1576 37.9743 87.6168C46.2199 93.0759 63.0522 91.1045 75.2405 84.4891C87.4288 77.8737 97.4182 60.8139 106.232 56.7385C115.047 52.6821 122.136 48.1518 123.539 44.7777C124.922 41.4037 123.88 33.4045 115.066 37.2335C106.251 41.0625 110.08 49.3649 95.6744 49.308C70.2363 49.1753 61.7443 53.0612 61.7443 53.0612Z" fill="#D59494"/>
<path d="M50.9966 91.1045C45.5185 91.1045 40.9503 89.9862 37.7658 87.8821C29.9372 82.7073 31.9275 71.4289 32.2498 69.9125C31.738 69.268 29.2359 66.1214 24.8761 61.2309C20.4027 56.2078 23.7199 50.8244 24.6487 49.5355C21.7485 47.3177 20.4027 45.081 20.6301 42.8822C20.9334 40.001 23.8715 38.1244 24.9899 37.4988C22.0707 34.4281 20.8766 31.6037 21.4073 29.0827C22.0328 26.1256 24.8761 24.5903 25.8239 24.1543C24.6676 20.3632 25.3121 15.7571 26.639 13.9184C27.2076 13.1223 27.8142 12.9517 28.2123 12.9517C28.8568 12.9517 29.5012 13.3687 30.1268 14.2027C31.7569 16.4205 37.9364 21.292 43.9073 26.0119C48.9684 30.0115 54.219 34.1437 56.8727 36.7975C62.0096 41.9344 62.1992 50.2937 62.1423 52.5304C64.2843 51.7343 73.2691 48.9289 94.5938 48.9289H95.8828C104.242 48.9289 106.157 46.1235 108.374 42.8632C109.853 40.6833 111.388 38.4277 114.971 36.8733C118.838 35.2053 121.814 35.5844 123.368 37.9159C124.752 39.982 124.676 43.0338 123.918 44.8725C122.591 48.0949 116.222 52.5115 106.441 57.0228C102.29 58.9373 97.7973 63.8657 93.0206 69.0784C87.8078 74.784 81.8938 81.2667 75.4679 84.7545C68.0943 88.7351 58.9578 91.1045 50.9966 91.1045ZM28.1933 13.653C27.7573 13.653 27.4162 14.0132 27.1887 14.3354C25.9187 16.0983 25.3879 20.7044 26.5632 24.2491C26.62 24.4197 26.5253 24.6092 26.3547 24.685C26.3167 24.704 22.7342 26.1446 22.0707 29.2533C21.559 31.6037 22.829 34.3333 25.8049 37.3662C25.8808 37.442 25.9187 37.5557 25.8997 37.6694C25.8808 37.7832 25.8049 37.878 25.7102 37.9159C25.6723 37.9348 21.6348 39.8493 21.3315 42.958C21.123 44.9483 22.4878 47.0523 25.35 49.1753C25.4258 49.2322 25.4827 49.327 25.4827 49.4218C25.5017 49.5165 25.4638 49.6113 25.4069 49.6871C25.2173 49.9146 20.687 55.4874 25.4069 60.776C30.3163 66.292 32.8942 69.5902 32.9132 69.6281C32.9701 69.7039 33.008 69.8177 32.9701 69.9125C32.9322 70.0262 30.2215 82.0439 38.1638 87.3135C41.2346 89.3417 45.6701 90.4221 51.0155 90.4221C58.863 90.4221 67.8668 88.0906 75.0699 84.1669C81.4009 80.736 87.2581 74.3101 92.4519 68.6424C97.2666 63.3729 101.816 58.3876 106.1 56.4163C115.577 52.0565 121.984 47.6589 123.216 44.645C123.918 42.939 123.937 40.1147 122.743 38.3329C121.378 36.2857 118.743 36.0203 115.217 37.5557C111.805 39.0342 110.346 41.1951 108.924 43.2992C106.706 46.5785 104.602 49.6682 95.8639 49.6682H94.5749C70.4068 49.6682 61.9907 53.3834 61.9149 53.4213C61.8011 53.4782 61.6684 53.4592 61.5737 53.3834C61.4789 53.3076 61.422 53.1939 61.422 53.0801C61.422 52.9854 61.9907 42.958 56.3799 37.3472C53.7451 34.7124 48.5324 30.5991 43.4903 26.6185C37.1971 21.6522 31.2641 16.9702 29.5771 14.6766C29.0653 13.9942 28.6103 13.653 28.1933 13.653Z" fill="#D59494"/>
<path d="M46.8644 40.1526C46.7317 40.1526 46.618 40.0957 46.5611 39.963C42.372 32.2293 28.4588 25.8603 28.3261 25.7844C28.1555 25.7086 28.0797 25.5001 28.1555 25.3295C28.2313 25.1589 28.4398 25.0831 28.6104 25.1589C29.198 25.4243 42.8648 31.6985 47.1677 39.6408C47.2625 39.8114 47.2056 40.0199 47.035 40.1147C46.9781 40.1336 46.9213 40.1526 46.8644 40.1526Z" fill="white"/>
<path d="M46.0114 49.8388C45.8787 49.8388 45.765 49.7819 45.7081 49.6492C41.5379 41.9534 27.7953 38.4277 27.6626 38.3897C27.473 38.3518 27.3593 38.1623 27.4162 37.9727C27.4541 37.7832 27.6436 37.6694 27.8332 37.7263C28.4019 37.878 41.9928 41.3468 46.3147 49.327C46.4094 49.4976 46.3526 49.7061 46.182 49.8009C46.1251 49.8198 46.0682 49.8388 46.0114 49.8388Z" fill="white"/>
<path d="M42.2204 56.1319C42.1256 56.1319 42.0309 56.094 41.974 56.0182C36.8181 50.6918 28.5536 50.6159 28.4778 50.6159C28.2882 50.6159 28.1366 50.4643 28.1366 50.2747C28.1366 50.0852 28.2882 49.9335 28.4778 49.9335C28.819 49.9335 37.1025 49.9904 42.4858 55.5443C42.6185 55.677 42.6185 55.9045 42.4858 56.0372C42.391 56.113 42.2962 56.1319 42.2204 56.1319Z" fill="white"/>
<path d="M46.8454 80.736C45.6323 80.736 44.7034 79.9588 44.3243 79.5986C42.9216 80.1104 41.6706 80.1104 40.5901 79.5418C39.0358 78.7456 38.2965 77.0586 38.0122 76.2435C37.1024 76.7743 34.8467 77.741 32.6668 75.637C29.8804 72.9643 33.5577 67.6189 33.7283 67.3914C33.842 67.2398 34.0506 67.2018 34.2212 67.2966C34.3728 67.4104 34.4107 67.6189 34.3159 67.7895C34.278 67.8463 30.8092 72.8695 33.1786 75.1441C35.5291 77.3998 37.9174 75.5043 38.0122 75.4285C38.107 75.3526 38.2397 75.3337 38.3345 75.3716C38.4482 75.4095 38.543 75.5043 38.5619 75.618C38.5619 75.637 39.1495 78.0253 40.9124 78.9352C41.8601 79.428 42.9975 79.4091 44.2864 78.8783C44.4191 78.8215 44.5897 78.8594 44.6845 78.9731C44.7034 78.9921 45.7649 80.1673 47.0918 80.0346C48.1533 79.9209 49.12 79.011 50.0109 77.3429C50.1057 77.1723 50.3142 77.1155 50.4848 77.1913C50.6554 77.2861 50.7123 77.4946 50.6365 77.6652C49.6318 79.5418 48.4756 80.5843 47.1866 80.736C47.0539 80.736 46.9591 80.736 46.8454 80.736Z" fill="white"/>
<path d="M66.9761 59.5818C66.8623 59.5818 66.7676 59.5249 66.6917 59.4491C66.578 59.2975 66.6159 59.07 66.7676 58.9563C75.1079 52.7958 91.9023 53.6488 92.6226 53.6867C92.8122 53.7056 92.9638 53.8573 92.9449 54.0468C92.9259 54.2364 92.7553 54.3691 92.5847 54.3691C92.4141 54.3691 75.3354 53.4782 67.1846 59.506C67.1087 59.5628 67.0329 59.5818 66.9761 59.5818Z" fill="white"/>
<path d="M69.1369 65.2495C69.0801 65.2495 69.0232 65.2305 68.9853 65.2115C68.8147 65.1168 68.7389 64.9083 68.8336 64.7377C71.1841 60.0557 80.1689 57.8758 80.548 57.7811C80.7376 57.7432 80.9271 57.8569 80.965 58.0464C81.0029 58.236 80.8892 58.4256 80.6997 58.4635C80.6049 58.4824 71.639 60.6623 69.4402 65.0409C69.4023 65.1926 69.2696 65.2495 69.1369 65.2495Z" fill="white"/>
<path d="M120.26 40.3232C120.26 41.0435 119.672 41.6311 118.952 41.6311C118.231 41.6311 117.644 41.0435 117.644 40.3232C117.644 39.6029 118.231 39.0153 118.952 39.0153C119.672 39.0153 120.26 39.6029 120.26 40.3232Z" fill="#30291D"/>
<path d="M118.724 39.6029C118.686 39.6029 118.667 39.6029 118.629 39.5839L117.283 38.7309C117.208 38.6741 117.17 38.5793 117.227 38.4845C117.283 38.4087 117.378 38.3898 117.473 38.4277L118.819 39.2807C118.895 39.3375 118.933 39.4323 118.876 39.5271C118.838 39.565 118.781 39.6029 118.724 39.6029Z" fill="#30291D"/>
<path d="M118.061 40.0957C118.042 40.0957 118.042 40.0957 118.023 40.0957L116.544 39.7924C116.449 39.7735 116.393 39.6787 116.411 39.5839C116.43 39.4891 116.525 39.4323 116.62 39.4512L118.099 39.7545C118.193 39.7735 118.25 39.8682 118.231 39.963C118.212 40.0388 118.136 40.0957 118.061 40.0957Z" fill="#30291D"/>
<path d="M54.0295 88.7162L46.2768 94.6681L43.0165 91.8627L44.7983 83.8257L54.0295 88.7162Z" fill="#D59494"/>
<path d="M46.2768 95.0093C46.201 95.0093 46.1062 94.9714 46.0493 94.9335L42.789 92.1281C42.6942 92.0523 42.6563 91.9196 42.6753 91.7869L44.4571 83.7498C44.476 83.6361 44.5519 83.5603 44.6466 83.5034C44.7414 83.4655 44.8551 83.4655 44.9499 83.5034L54.1812 88.3939C54.2949 88.4507 54.3518 88.5455 54.3707 88.6782C54.3897 88.7919 54.3328 88.9057 54.238 88.9815L46.4853 94.9335C46.4284 94.9903 46.3526 95.0093 46.2768 95.0093ZM43.3956 91.73L46.2768 94.2132L53.385 88.773L45.0447 84.3564L43.3956 91.73Z" fill="#D59494"/>
<path d="M34.9984 87.5978C34.9984 87.5978 24.118 97.9663 14.6593 103.596C7.64583 107.766 3.98745 107.728 3.2861 107.217C2.58475 106.705 0.765044 104.43 0.366982 107.615C-0.0310799 110.799 3.98745 126.835 1.58012 130.57C-0.827205 134.285 2.98281 136.01 4.10118 128.352C5.20059 120.694 4.0064 112.543 4.8973 111.842C5.80716 111.14 18.3935 105.302 24.535 100.468C30.6766 95.6348 37.0076 88.8867 37.0076 88.8867L34.9984 87.5978Z" fill="#EDD3BE"/>
<path d="M1.46641 134.076C1.10626 134.076 0.802972 133.887 0.632374 133.564C0.329088 132.996 0.329088 131.858 1.29581 130.38C2.79328 128.086 1.637 120.372 0.784014 114.723C0.291175 111.387 -0.106884 108.733 0.0258038 107.577C0.196402 106.269 0.632371 105.605 1.35267 105.605C1.99715 105.605 2.62268 106.155 3.11552 106.61C3.26717 106.743 3.3809 106.856 3.49463 106.932C3.60836 107.008 3.9306 107.103 4.4803 107.103C5.56076 107.103 8.7263 106.724 14.4887 103.293C23.8147 97.7389 34.6572 87.4461 34.752 87.3324C34.8657 87.2187 35.0552 87.1997 35.1879 87.2945L37.1972 88.6024C37.292 88.6593 37.3488 88.754 37.3488 88.8488C37.3678 88.9436 37.3299 89.0573 37.2541 89.1331C37.1972 89.209 30.8282 95.9571 24.7246 100.753C20.2322 104.278 12.3089 108.354 8.04391 110.553C6.52748 111.33 5.31434 111.955 5.10583 112.126C4.8215 112.429 4.85941 114.647 4.89732 116.808C4.95419 119.955 5.03001 124.257 4.42344 128.409C3.87373 132.332 2.54686 134.076 1.46641 134.076ZM1.35267 106.307C0.954612 106.307 0.784016 107.16 0.72715 107.671C0.594463 108.752 0.992524 111.481 1.46641 114.628C2.37626 120.694 3.51358 128.238 1.86447 130.759C1.12521 131.896 1.01148 132.825 1.23895 133.223C1.31477 133.356 1.40954 133.375 1.46641 133.375C1.9782 133.375 3.19134 132.143 3.76 128.295C4.34762 124.219 4.2718 119.936 4.21493 116.808C4.15806 113.377 4.15806 111.974 4.68881 111.557C4.95419 111.349 5.86404 110.875 7.74062 109.908C11.9866 107.728 19.872 103.672 24.3076 100.184C29.6151 95.995 35.15 90.3084 36.4579 88.9436L35.0173 88.0148C33.482 89.4554 23.5115 98.7056 14.8299 103.88C8.91585 107.406 5.59867 107.785 4.46135 107.785C4.02538 107.785 3.41881 107.728 3.07761 107.482C2.96388 107.387 2.81224 107.273 2.64164 107.122C2.28149 106.818 1.73178 106.307 1.35267 106.307Z" fill="#EDD3BE"/>
<path d="M44.8172 84.8113L37.0645 90.7633L33.8042 87.9579L35.586 79.9209L44.8172 84.8113Z" fill="#D59494"/>
<path d="M37.0645 91.1045C36.9887 91.1045 36.8939 91.0666 36.837 91.0287L33.5767 88.2233C33.4819 88.1475 33.444 88.0148 33.463 87.8821L35.2448 79.8451C35.2637 79.7313 35.3396 79.6555 35.4343 79.5986C35.5291 79.5607 35.6429 79.5607 35.7376 79.5986L44.9689 84.4891C45.0826 84.546 45.1395 84.6407 45.1584 84.7734C45.1774 84.8872 45.1205 85.0009 45.0258 85.0767L37.273 91.0287C37.2161 91.0855 37.1403 91.1045 37.0645 91.1045ZM34.1833 87.8252L37.0645 90.3084L44.1728 84.8682L35.8324 80.4516L34.1833 87.8252Z" fill="#D59494"/>
<path d="M150.019 42.8632C150.664 43.5077 151.308 44.1522 151.972 44.8156C152.768 45.6117 154 44.3796 153.204 43.5835C152.559 42.939 151.915 42.2945 151.251 41.6311C150.455 40.835 149.223 42.0671 150.019 42.8632Z" fill="white"/>
<path d="M142.57 59.4681C143.214 58.8236 143.859 58.1791 144.522 57.5346C145.318 56.7385 144.086 55.5064 143.29 56.3025C142.646 56.947 142.001 57.5915 141.338 58.236C140.542 59.0321 141.774 60.2642 142.57 59.4681Z" fill="white"/>
<path d="M151.062 87.9011C150.74 87.0481 150.417 86.1761 150.095 85.3231C149.697 84.2806 148.067 84.8872 148.465 85.9297C148.787 86.7827 149.109 87.6547 149.432 88.5077C149.811 89.5692 151.441 88.9626 151.062 87.9011Z" fill="white"/>
<path d="M162.094 81.7595C162.757 81.1151 163.402 80.4895 164.065 79.8451C164.88 79.0679 163.667 77.8168 162.852 78.594C162.189 79.2385 161.544 79.864 160.881 80.5085C160.066 81.2857 161.279 82.5367 162.094 81.7595Z" fill="white"/>
<path d="M169.941 106.003C170.813 105.7 171.666 105.397 172.538 105.094C173.6 104.714 173.012 103.084 171.951 103.444C171.079 103.748 170.226 104.051 169.354 104.354C168.311 104.733 168.88 106.364 169.941 106.003Z" fill="white"/>
<path d="M150.683 105.226C149.887 104.771 149.091 104.297 148.313 103.842C147.347 103.274 146.475 104.79 147.441 105.34C148.238 105.795 149.034 106.269 149.811 106.724C150.797 107.292 151.668 105.795 150.683 105.226Z" fill="white"/>
<path d="M157.507 56.511C158.246 57.0418 159.004 57.5725 159.743 58.1033C160.653 58.7667 161.677 57.3451 160.748 56.6816C160.009 56.1509 159.251 55.6201 158.511 55.0894C157.602 54.4449 156.578 55.8476 157.507 56.511Z" fill="white"/>
<path d="M150.626 70.8602C151.536 70.8413 152.464 70.8034 153.374 70.7844C154.493 70.7465 154.455 69.0026 153.317 69.0405C152.408 69.0595 151.479 69.0974 150.569 69.1163C149.451 69.1543 149.507 70.8792 150.626 70.8602Z" fill="white"/>
<path d="M135.31 92.2418C136.22 92.2229 137.149 92.185 138.058 92.166C139.177 92.1281 139.139 90.3842 138.002 90.4221C137.092 90.4411 136.163 90.479 135.253 90.4979C134.135 90.5169 134.192 92.2608 135.31 92.2418Z" fill="white"/>
<path d="M136.675 74.0637C137.585 74.1964 138.495 74.348 139.385 74.4807C140.504 74.6513 140.75 72.9264 139.651 72.7558C138.741 72.6231 137.831 72.4714 136.94 72.3388C135.822 72.1682 135.556 73.8931 136.675 74.0637Z" fill="white"/>
<path d="M161.923 96.829C162.814 97.0375 163.705 97.246 164.596 97.4545C165.695 97.7199 166.094 96.0139 164.994 95.7675C164.103 95.559 163.212 95.3505 162.321 95.142C161.241 94.8766 160.843 96.5636 161.923 96.829Z" fill="white"/>
</svg>
