<svg width="77" height="48" viewBox="0 0 77 48" fill="none" xmlns="http://www.w3.org/2000/svg">
<path d="M66.2309 16.1614C66.2309 16.1614 75.3891 16.1614 75.3292 22.5661C75.2694 30.9461 66.9791 30.9162 66.9791 30.9162C62.9388 47.9456 44.7422 40.6131 44.7422 40.6131C29.6582 55.2481 17.8664 37.9195 17.8664 37.9195C8.16951 42.4088 -1.07842 32.3827 1.43558 27.1751C3.97951 21.9376 9.48637 20.6208 9.48637 20.6208C9.48637 20.6208 9.18708 13.9168 14.1253 11.6721C19.0635 9.42749 23.0739 12.57 23.0739 12.57C23.0739 12.57 24.5105 3.44178 32.3219 1.52635C42.6173 -1.01757 48.603 7.63178 48.603 7.63178C48.603 7.63178 63.9863 0.77813 66.2309 16.1614Z" fill="#D5EAEC"/>
<path d="M32.4116 47.5565C24.6601 47.5565 19.1832 41.3613 17.5371 39.2364C16.0407 39.8349 14.4544 40.1342 12.8982 40.1342C7.42123 40.1342 3.32102 36.6924 1.46545 33.7295C-0.0908361 31.2753 -0.420052 28.7314 0.537662 26.7561C2.69252 22.3267 6.79273 20.4711 8.49866 19.8726C8.58845 17.8674 9.24688 12.7795 13.7362 10.7444C15.053 10.1458 16.4297 9.8465 17.8064 9.8465C19.7518 9.8465 21.3679 10.4451 22.4154 10.9539C23.1936 8.14057 25.6178 2.12492 32.1123 0.50878C33.4591 0.179566 34.7759 0 36.0928 0C43.0662 0 47.5255 4.609 48.9621 6.37478C50.249 5.89592 52.9127 5.05793 55.8756 5.05793C60.1853 5.05793 65.5724 6.82371 67.0988 15.1439C68.7748 15.2636 72.3662 15.8023 74.551 18.017C75.7482 19.2441 76.3767 20.7704 76.3467 22.5661C76.3168 29.4198 71.1092 31.6046 67.7572 31.9338C65.2133 41.2416 58.4794 43.2468 53.182 43.2468C49.5008 43.2468 46.2685 42.2891 44.9517 41.8401C40.9113 45.6411 36.6914 47.5565 32.4116 47.5565ZM17.8663 36.9019C18.1955 36.9019 18.5247 37.0516 18.7342 37.3509C18.7941 37.4406 24.3608 45.4615 32.4116 45.4615C36.3023 45.4615 40.2229 43.576 44.0239 39.8948C44.3232 39.5955 44.7422 39.5356 45.1312 39.6853C45.1612 39.6853 48.9022 41.1817 53.2119 41.1817C60.0357 41.1817 64.3154 37.6501 65.9615 30.7067C66.0812 30.2279 66.5002 29.8986 66.9791 29.8986C67.2784 29.8986 74.2517 29.8088 74.3116 22.5661C74.3116 21.3091 73.9225 20.3215 73.1144 19.4835C71.2289 17.598 67.5178 17.179 66.2608 17.179C65.752 17.179 65.3031 16.7899 65.2432 16.2811C64.3454 10.2056 61.2328 7.12299 55.9354 7.12299C52.344 7.12299 49.1117 8.55957 49.0818 8.55957C48.6329 8.76907 48.0942 8.61942 47.7949 8.20043C47.7649 8.14057 43.4552 2.06507 36.1227 2.06507C34.9854 2.06507 33.8182 2.21471 32.651 2.514C25.5579 4.27978 24.1513 12.6598 24.1214 12.7496C24.0615 13.1087 23.8221 13.408 23.4629 13.5576C23.1337 13.7073 22.7447 13.6474 22.4454 13.408C22.4154 13.408 20.4701 11.9116 17.7765 11.9116C16.6991 11.9116 15.5917 12.151 14.5742 12.6298C10.3243 14.5453 10.5637 20.531 10.5637 20.5909C10.5937 21.0996 10.2644 21.5186 9.78559 21.6384C9.72573 21.6384 4.69773 22.9552 2.42316 27.654C1.79466 28.9409 2.09395 30.7666 3.26116 32.5922C4.93716 35.2858 8.58845 38.0093 12.9281 38.0093C14.4844 38.0093 16.0107 37.6501 17.4772 36.9917C17.567 36.9319 17.7167 36.9019 17.8663 36.9019Z" fill="#7D9492"/>
<path d="M47.4358 6.22513C47.4358 6.22513 52.0149 10.2655 52.7032 13.6175C53.6011 17.9571 51.1769 19.9923 48.1541 19.6331C43.3356 19.0346 45.5503 14.8146 45.5503 14.8146" fill="#B7DBDB"/>
<path d="M48.8125 20.7105C48.5431 20.7105 48.2737 20.6806 48.0044 20.6507C46.2087 20.4412 44.9816 19.7229 44.383 18.5557C43.4253 16.7001 44.5027 14.5453 44.6225 14.3058C44.8918 13.7971 45.5203 13.6175 46.0291 13.8868C46.5379 14.1562 46.7175 14.7847 46.478 15.2935C46.2685 15.6826 45.8495 16.8797 46.2386 17.6279C46.508 18.1367 47.1963 18.4659 48.2737 18.6155C49.441 18.7652 50.4286 18.4659 51.0571 17.7775C51.8353 16.9395 52.0448 15.5928 51.6856 13.8569C51.1768 11.4028 47.9445 8.11064 46.7474 7.03321C46.3284 6.64414 46.2685 5.98571 46.6576 5.56671C47.0467 5.14771 47.7051 5.08785 48.1241 5.47692C48.3336 5.65649 52.9725 9.78663 53.7208 13.4379C54.3493 16.4906 53.4514 18.2564 52.6134 19.1842C51.6856 20.1419 50.3388 20.7105 48.8125 20.7105Z" fill="#7D9492"/>
<path d="M20.2307 40.7029C20.2307 40.7029 15.7414 35.8245 14.4844 33.6996C12.2697 29.8687 14.1252 26.7262 17.148 26.6963C22.0264 26.6364 20.3504 31.1257 20.3504 31.1257" fill="#B7DBDB"/>
<path d="M20.2307 41.7503C19.9613 41.7503 19.6621 41.6306 19.4526 41.4211C19.273 41.2116 14.8735 36.4231 13.5866 34.2383C12.2996 31.9936 12.1201 29.7191 13.1077 27.9832C13.9158 26.5766 15.4122 25.7087 17.1481 25.6787C17.178 25.6787 17.2378 25.6787 17.2678 25.6787C19.0036 25.6787 20.2906 26.2174 21.0388 27.2649C22.2658 28.9709 21.4578 31.2754 21.368 31.5148C21.1585 32.0535 20.5599 32.3229 20.0212 32.1433C19.4825 31.9338 19.2131 31.3352 19.3927 30.7965C19.5423 30.3775 19.8117 29.1504 19.3029 28.4621C18.9737 27.9832 18.2554 27.7438 17.1481 27.7737C16.1604 27.7737 15.3224 28.2526 14.9034 29.0307C14.2749 30.1081 14.4545 31.6345 15.3823 33.2207C16.5495 35.2259 20.949 39.9846 20.9789 40.0444C21.368 40.4634 21.3381 41.1218 20.9191 41.5109C20.7395 41.6606 20.4701 41.7503 20.2307 41.7503Z" fill="#7D9492"/>
</svg>
