<svg width="286" height="411" viewBox="0 0 286 411" fill="none" xmlns="http://www.w3.org/2000/svg">
<path d="M286 274.522H162C164.771 267.063 170.147 260.724 176.934 257.562C184.51 254.041 193.73 254.719 200.555 259.735C203.056 250.847 209.453 242.898 217.374 239.418C225.295 235.937 234.65 236.567 242.121 241.084C249.592 245.594 255.028 253.902 256.507 263.051C258.249 260.413 261.034 258.869 263.97 258.305C266.914 257.733 269.977 258.232 272.777 259.359C278.995 261.868 283.951 267.684 286 274.522Z" fill="#97E8EE" fill-opacity="0.25"/>
<path d="M193.61 57.6862H2C6.28123 46.1607 14.5885 36.3648 25.0768 31.4795C36.7835 26.0388 51.0308 27.0868 61.5774 34.8372C65.441 21.103 75.326 8.82016 87.5659 3.44227C99.8063 -1.93561 114.262 -0.963377 125.807 6.01733C137.351 12.9857 145.751 25.8239 148.036 39.9621C150.728 35.8846 155.032 33.4986 159.569 32.6279C164.117 31.7443 168.851 32.5146 173.178 34.2566C182.786 38.1326 190.443 47.1206 193.61 57.6862Z" fill="#97E8EE" fill-opacity="0.25"/>
<path d="M95 410.187H0C3.18902 405.806 7.78255 402.637 12.7862 401.471C19.9842 399.807 27.8078 402.241 33.3245 407.617C38.0412 394.805 48.3563 383.973 60.7734 382.151C69.0482 380.94 77.6511 384.154 83.9674 390.187C89.4016 395.371 93.1646 402.513 95 410.187Z" fill="#97E8EE" fill-opacity="0.25"/>
<path d="M277 125.123H231C232.544 122.933 234.768 121.349 237.191 120.766C240.677 119.934 244.465 121.15 247.136 123.839C249.42 117.432 254.415 112.016 260.427 111.105C264.434 110.5 268.599 112.107 271.658 115.123C274.289 117.715 276.111 121.286 277 125.123Z" fill="#97E8EE" fill-opacity="0.25"/>
<path d="M100 211.077H5C8.18902 206.697 12.7825 203.528 17.7862 202.362C24.9842 200.698 32.8078 203.132 38.3245 208.508C43.0412 195.696 53.3563 184.864 65.7734 183.042C74.0482 181.83 82.6511 185.045 88.9674 191.078C94.4016 196.262 98.1646 203.404 100 211.077Z" fill="#97E8EE" fill-opacity="0.25"/>
</svg>
